<svg width="32" height="32" viewBox="0 0 32 32" fill="none" xmlns="http://www.w3.org/2000/svg">
<path fill-rule="evenodd" clip-rule="evenodd" d="M13.7543 3.61399C11.7983 4.76804 9.84216 5.92185 7.88586 7.07539C5.84759 8.27731 4.15394 9.28562 4.1222 9.316C4.07647 9.35984 4.07386 10.2566 4.10961 13.6239C4.13446 15.9629 4.1552 18.8988 4.15572 20.1481C4.15618 21.3975 4.16993 22.5781 4.18625 22.7715L4.2159 23.1233L5.10691 23.63C5.66798 23.9491 6.22914 24.2679 6.79039 24.5866C7.22625 24.8341 8.06533 25.3111 8.65502 25.6469C14.6569 29.0636 16.159 29.9048 16.2071 29.876C16.2375 29.8578 18.8982 28.2871 22.1198 26.3855C25.3414 24.484 27.9773 22.9119 27.9773 22.8919C27.9773 22.8541 27.1712 22.4339 27.0988 22.4339C27.0761 22.4339 24.6012 23.8838 21.599 25.6558L16.1405 28.8777L11.4421 26.2118C6.14681 23.2069 5.23524 22.6892 5.13553 22.6293C5.05591 22.5817 5.06057 22.8541 5.00142 14.7914C4.96888 10.3569 4.97252 9.87609 5.0388 9.80891C5.07917 9.76801 7.48264 8.34018 10.3798 6.63596C13.277 4.93174 15.7117 3.49872 15.7903 3.45146L15.9333 3.3655L16.5129 3.69569C16.8316 3.87729 17.4911 4.25162 17.9782 4.5275C18.4652 4.80337 19.9127 5.62504 21.1947 6.3534C22.4766 7.08176 23.5884 7.71321 23.6653 7.75664C23.7422 7.80011 24.5128 8.23852 25.3778 8.73091C26.2428 9.22331 26.9702 9.6262 26.9942 9.6262C27.1294 9.6262 27.839 9.14057 27.7818 9.08724C27.7482 9.05606 27.1335 8.69871 26.4157 8.29316C25.6977 7.88766 24.0196 6.93586 22.6864 6.17807L19.3766 4.297C18.8895 4.02014 17.956 3.4896 17.3023 3.11794C16.6484 2.74633 16.0692 2.4188 16.0152 2.3901C15.9288 2.34424 15.6534 2.49331 13.7543 3.61399ZM11.3791 6.55393C8.88096 8.02634 6.51499 9.41992 6.12141 9.65069L5.4058 10.0703L5.43974 15.0718C5.45844 17.8227 5.48679 20.5854 5.50272 21.2112L5.53176 22.3491L9.23772 24.4528L14.5388 27.4621L16.1338 28.3676L16.4966 28.1524C16.6961 28.0339 17.4678 27.5796 18.2113 27.1427C18.9548 26.7059 19.9617 26.1122 20.4488 25.8234C20.936 25.5346 22.5092 24.6085 23.9449 23.7653C26.8991 22.0304 26.6729 22.1761 26.553 22.0851C26.412 21.9782 26.4009 21.9828 25.4968 22.5201C25.028 22.7988 24.5183 23.1005 24.3645 23.1904C24.2107 23.2802 23.1304 23.9178 21.9639 24.6073C20.6392 25.3901 19.3142 26.1724 17.9892 26.9543L16.1354 28.0478L15.7723 27.8469C15.5726 27.7362 13.2469 26.4166 10.6041 24.9142L5.79905 22.1826L5.76857 19.6089C5.75179 18.1932 5.73361 15.5001 5.72816 13.624L5.71823 10.2129L6.231 9.91241L7.00016 9.46166C7.26223 9.30806 9.98692 7.70167 11.079 7.05684C11.4123 6.86005 12.3773 6.29212 13.2234 5.79477C14.0694 5.29746 15.023 4.73466 15.3424 4.54413C15.8212 4.25853 15.9403 4.20562 16.0212 4.2426C16.0751 4.26723 16.7368 4.63945 17.4915 5.06973C19.8026 6.38724 20.1336 6.57537 22.7096 8.03598C24.0813 8.8137 25.436 9.58431 25.72 9.74847C26.2946 10.0805 26.2816 10.0765 26.4261 9.96405C26.537 9.87781 26.6135 9.92339 21.4569 7.00575C21.1588 6.83715 19.798 6.0641 18.4331 5.28792C17.068 4.51179 15.9445 3.87673 15.9362 3.87673C15.928 3.87673 13.8772 5.08146 11.3791 6.55393ZM17.0692 10.4878C15.9524 10.9008 15.6265 11.4325 15.9301 12.3464C16.192 13.135 16.6798 13.4151 17.2698 13.1156L17.4861 13.0058L17.541 13.174C17.6094 13.3843 17.7627 13.6148 17.9125 13.733C18.0259 13.8224 18.0269 13.8298 17.9922 14.3075C17.9058 15.4986 17.8759 15.8443 17.8577 15.8624C17.8471 15.8731 17.6523 15.7905 17.4249 15.6787C16.4814 15.2153 15.3363 15.3014 14.4983 15.8987C14.4339 15.9446 14.3727 15.9088 14.1186 15.6762C13.1848 14.8214 11.8396 14.4749 11.4877 14.9986L11.382 15.1558V17.3014C11.382 19.9008 11.3461 19.7683 12.1187 20.0213C13.0135 20.3142 13.7773 20.2938 14.4792 19.9579L14.7894 19.8094L15.1251 19.9493C16.4488 20.501 18.0459 20.435 19.3394 19.7756C20.167 19.3536 21.0432 18.5094 21.2431 17.9411C21.365 17.595 21.3246 17.2809 20.92 15.4208C20.7048 14.4319 20.4637 13.3032 20.3843 12.9127C20.1138 11.5841 19.9232 11.3099 18.9384 10.8338C18.6154 10.6775 18.2697 10.5208 18.1704 10.4853C17.9457 10.4051 17.2888 10.4065 17.0692 10.4878ZM17.177 10.9789C16.7028 11.1501 16.4724 11.307 16.3633 11.533L16.2619 11.743L16.3646 12.0986C16.5249 12.6539 16.7229 12.8401 17.0075 12.7029C17.2502 12.586 17.2899 12.4373 17.1794 12.0609C17.0686 11.6836 17.1037 11.5292 17.3057 11.5054C17.4877 11.484 17.5512 11.5983 17.8079 12.4074C18.1382 13.4483 18.1942 13.5059 18.8784 13.5059C19.2711 13.5059 19.3999 13.5709 19.3999 13.769C19.3999 13.9341 19.3052 13.9734 18.9066 13.9734H18.525L18.4962 14.2188C18.4803 14.3537 18.4352 14.889 18.3959 15.4083L18.3244 16.3523L18.4878 16.5803C18.6986 16.8745 18.7468 17.0083 18.6888 17.1362C18.5817 17.3718 18.3531 17.3065 18.1663 16.9872C17.2978 15.501 15.0198 15.5056 14.1492 16.9951C14.0024 17.2464 13.9013 17.3084 13.7392 17.2465C13.5234 17.1643 13.6247 16.7867 13.9633 16.4109L14.0624 16.3008L13.7517 16.0105C13.2848 15.5741 12.5527 15.2354 12.0764 15.2354H11.8948V19.4221L12.1162 19.507C12.9403 19.8225 13.7104 19.799 14.4163 19.4363L14.7702 19.2546L15.1187 19.4161C16.882 20.233 18.9109 19.8564 20.2951 18.4551C20.8042 17.9396 20.9234 17.56 20.7628 16.965C20.7314 16.8492 20.5912 16.2288 20.451 15.586C20.2247 14.5485 20.1364 14.1269 19.8335 12.6412C19.6804 11.8893 19.4864 11.6443 18.7623 11.2882C17.9036 10.8659 17.6351 10.8135 17.177 10.9789Z" fill="white"/>
</svg>
