<svg width="76" height="83" viewBox="0 0 76 83" fill="none" xmlns="http://www.w3.org/2000/svg">
<path d="M71.0032 72.781H49.7039C46.5485 72.781 43.656 71.483 41.2894 69.4061L7.89417 36.4353L26.301 15.6663C26.301 25.7911 37.0821 36.4353 47.3373 36.4353H49.9669C49.7039 48.1178 54.1741 56.685 65.7441 60.3196C66.533 60.5792 67.0589 60.8388 67.8478 60.8388C71.0032 61.6177 73.1068 64.9926 72.318 68.108L71.0032 72.781Z" stroke="white" stroke-width="4" stroke-miterlimit="10" stroke-linecap="round" stroke-linejoin="round"/>
<path d="M2.63507 41.6277L38.6598 77.1946C40.7635 79.2715 43.9189 80.5696 47.0744 80.5696H71.0032" stroke="white" stroke-width="4" stroke-miterlimit="10" stroke-linecap="round" stroke-linejoin="round"/>
<path d="M27.6159 44.2237C29.7943 44.2237 31.5602 42.4802 31.5602 40.3295C31.5602 38.1788 29.7943 36.4353 27.6159 36.4353C25.4375 36.4353 23.6716 38.1788 23.6716 40.3295C23.6716 42.4802 25.4375 44.2237 27.6159 44.2237Z" stroke="white" stroke-width="4" stroke-miterlimit="10" stroke-linecap="round" stroke-linejoin="round"/>
<path d="M39.4486 49.416H51.2816" stroke="white" stroke-width="4" stroke-miterlimit="10" stroke-linecap="round" stroke-linejoin="round"/>
<path d="M44.7079 57.2046H59.1704" stroke="white" stroke-width="4" stroke-miterlimit="10" stroke-linecap="round" stroke-linejoin="round"/>
<path d="M73.6328 2.68555L54.4371 21.6373C49.9669 26.0507 48.3892 32.2814 49.9669 38.2525" stroke="white" stroke-width="4" stroke-miterlimit="10" stroke-linecap="round" stroke-linejoin="round"/>
<path d="M26.3008 18.2623C31.2969 16.7046 35.7671 13.07 38.3967 8.65664L42.078 2.68555" stroke="white" stroke-width="4" stroke-miterlimit="10" stroke-linecap="round" stroke-linejoin="round"/>
</svg>
