<svg width="45" height="45" viewBox="0 0 45 45" fill="none" xmlns="http://www.w3.org/2000/svg">
<path d="M20.0891 0.0664856C15.8929 0.573406 12.2506 2.01907 8.92744 4.49735C7.72585 5.39854 5.37899 7.75478 4.46841 8.98454C1.52076 12.946 0 17.5459 0 22.4555C0 27.459 1.53954 32.0682 4.5529 36.0672C9.45313 42.5633 17.4512 45.8865 25.5807 44.7882C30.3589 44.1404 34.649 42.047 38.1317 38.6676C41.8867 35.0252 44.0833 30.6976 44.8343 25.4595C45.0315 24.0983 45.0596 21.0943 44.8813 19.7801C43.8486 12.0448 39.3051 5.652 32.4335 2.27253C30.3495 1.23991 28.472 0.639118 26.144 0.244847C24.8579 0.0195485 21.3094 -0.0743257 20.0891 0.0664856ZM25.8154 1.99091C29.3732 2.60109 32.6213 4.03736 35.4187 6.22463C36.4044 7.00379 38.2443 8.90005 39.0235 9.92328C41.2014 12.8334 42.5062 15.9688 43.0507 19.5923C43.2478 20.8972 43.276 23.7322 43.107 25.037C42.5344 29.3365 40.7132 33.2886 37.8501 36.424C30.5748 44.3939 18.6059 45.5016 9.96005 38.9961C8.91805 38.2076 7.0124 36.3583 6.25202 35.3913C4.44964 33.0914 3.09785 30.3597 2.40318 27.5904C1.92442 25.7035 1.83993 24.9525 1.83993 22.5024C1.83993 20.5123 1.8681 20.0429 2.04646 19.0009C2.44073 16.7949 3.07907 14.8986 4.06475 12.9742C5.92346 9.35064 9.1058 6.11198 12.6918 4.20634C15.1325 2.90149 17.5075 2.17866 20.5584 1.81255C21.3376 1.71867 24.9611 1.84071 25.8154 1.99091Z" fill="white"/>
<path d="M19.9952 4.06553C14.0342 4.87285 8.75847 8.60904 6.01734 13.9599C4.58106 16.7667 3.94272 19.3952 3.94272 22.5024C3.94272 25.5252 4.63739 28.3602 6.03611 31.0825C6.95608 32.8661 7.47239 33.251 8.15767 32.6784C8.61765 32.2935 8.56133 31.9274 7.89482 30.7821C7.01241 29.252 6.29896 27.2806 5.95163 25.4407C5.72633 24.1922 5.67 21.5637 5.85775 20.2494C6.66507 14.495 10.2041 9.69798 15.4611 7.22909C17.0288 6.49687 18.6434 6.04627 20.6054 5.78343C21.9196 5.61445 24.473 5.7271 25.8717 6.01811C32.3866 7.38868 37.4558 12.3734 38.9015 18.8507C40.1218 24.3048 38.5448 29.956 34.649 34.0865C32.6588 36.1893 29.7581 37.926 26.9325 38.6863C22.4172 39.9067 17.5451 39.1933 13.6118 36.7431C12.673 36.1517 12.1567 36.1517 11.8469 36.7431C11.6873 37.0341 11.7155 37.4378 11.9033 37.6819C11.9877 37.7945 12.4196 38.1043 12.8608 38.3672C16.7096 40.7046 21.5254 41.587 25.8623 40.761C32.1801 39.5594 37.3713 35.2975 39.7463 29.374C41.6989 24.5207 41.5112 19.1699 39.2394 14.4386C38.2444 12.3922 37.0615 10.7588 35.3812 9.11596C32.4899 6.31851 28.8945 4.58184 24.9048 4.05614C23.5906 3.88717 21.3188 3.88717 19.9952 4.06553Z" fill="white"/>
<path d="M21.3658 8.72168C20.6054 8.82494 19.9013 9.17228 19.2911 9.74491C18.6622 10.3363 18.3524 10.8526 18.1553 11.6318C17.6953 13.3966 18.6152 15.3398 20.2674 16.1377C21.0654 16.5226 22.3045 16.6165 23.1024 16.3537C24.9799 15.7529 26.1815 13.8284 25.8342 11.9885C25.4305 9.79185 23.553 8.42129 21.3658 8.72168ZM22.9053 10.6837C23.6 11.031 24.1257 11.8477 24.1257 12.5799C24.1257 13.3497 23.5624 14.2133 22.8677 14.5325C22.6331 14.6358 22.267 14.7109 21.9384 14.7109C20.3331 14.7109 19.3287 13.0774 20.0515 11.6318C20.5866 10.5616 21.8445 10.1392 22.9053 10.6837Z" fill="white"/>
<path d="M17.7892 18.1185C17.5826 18.2405 17.3292 18.494 17.2071 18.7005C17.01 19.0479 16.9912 19.1887 16.9912 20.6531C16.9912 22.3616 17.0288 22.5212 17.5263 22.9906C17.9394 23.3848 18.221 23.4412 19.6291 23.4412H20.9339L20.9152 25.8068L20.887 28.1818L19.4601 28.2288C18.2022 28.2663 18.0051 28.2945 17.7704 28.4728C17.0945 28.9704 16.9443 29.543 17.0006 31.3923C17.0382 32.3968 17.0663 32.5376 17.2916 32.9412C17.47 33.2416 17.6765 33.4294 17.9581 33.5702C18.3524 33.7673 18.4838 33.7673 23.2902 33.7673C27.8712 33.7673 28.2374 33.7486 28.5847 33.589C29.0165 33.3918 29.3263 33.0821 29.4671 32.7066C29.5234 32.5564 29.5704 31.7678 29.5704 30.9323C29.5704 29.4773 29.561 29.4022 29.3357 29.0079C28.9883 28.4165 28.6692 28.2851 27.5051 28.2288L26.5195 28.1818L26.4725 23.582C26.435 20.3339 26.3974 18.9258 26.3129 18.7944C26.1815 18.5503 25.7309 18.1467 25.4681 18.0059C25.3273 17.9308 24.1538 17.9026 21.7131 17.9026C18.2022 17.9026 18.1646 17.912 17.7892 18.1185ZM24.6889 24.0983C24.6889 28.8483 24.6983 28.9047 25.1864 29.4303C25.5432 29.8152 25.8999 29.9373 26.8574 29.9842L27.7868 30.0405V31.0074V31.9837H23.2808H18.7748V31.0074V30.0405L20.1172 29.9936C21.5817 29.9467 21.8445 29.8716 22.2857 29.3552C22.6894 28.8671 22.7269 28.5104 22.6988 25.6191C22.6706 23.0094 22.6612 22.9155 22.4547 22.5494C22.3327 22.3428 22.0886 22.0612 21.9008 21.9392C21.5817 21.7233 21.469 21.7045 20.1642 21.6763L18.7748 21.6388V20.6625V19.6862H21.7319H24.6889V24.0983Z" fill="white"/>
<path d="M9.16213 34.2461C8.85235 34.6122 8.85235 34.9877 9.16213 35.3538C9.35927 35.5979 9.47192 35.6448 9.80986 35.6448C10.1478 35.6448 10.2605 35.5979 10.4576 35.3538C10.5984 35.1942 10.7017 34.9502 10.7017 34.8C10.7017 34.6498 10.5984 34.4057 10.4576 34.2461C10.2605 34.002 10.1478 33.9551 9.80986 33.9551C9.47192 33.9551 9.35927 34.002 9.16213 34.2461Z" fill="white"/>
</svg>
