<svg width="107" height="105" viewBox="0 0 107 105" fill="none" xmlns="http://www.w3.org/2000/svg">
<path d="M25.9086 11.4927C35.17 6.96563 64.0626 0.855961 76 0.500053C79.3963 0.389957 68.7956 3.92745 68.7662 4.10844C68.7428 4.14534 65.9035 4.98809 62.427 5.96446C44.3607 11.0537 37.3599 13.6197 30.1277 17.7952C23.3308 21.7194 19.1728 25.8067 16.6811 31.0405C14.4253 35.7164 13.8237 41.8268 15.1245 46.9795C15.7457 49.4086 17.6036 52.9746 19.314 55.0092C24.3067 60.9118 32.9951 65.2899 44.767 67.8174C51.4894 69.2542 60.6797 70.1329 66.7103 69.9075C67.9319 69.8582 68.2672 69.7817 68.256 69.5305C68.2687 69.3592 68.097 66.0848 67.8726 62.2551C67.6649 58.4159 67.5105 55.2487 67.5709 55.2372C67.7048 55.1599 106.954 76.2426 106.911 76.3612C106.871 76.5246 70.501 104.851 70.3397 104.804C70.2859 104.788 69.5715 93.8849 69.3258 89.7864C69.3664 89.8567 69.107 85.6959 69.3258 89.7864C69.2751 89.6986 67.6396 89.4949 65.6988 89.3035C61.7567 88.9322 55.8525 88.1007 51.4925 87.3147C30.7068 83.5957 16.1096 77.3345 9.5237 69.3296C4.43919 63.152 1.35495 56.1475 0.660542 49.1455C-0.567589 36.6182 5.64207 24.8335 18.1544 16.0399C19.8545 14.8475 23.8855 12.4734 25.9086 11.4927Z" fill="url(#paint0_linear_49_28)"/>
<defs>
<linearGradient id="paint0_linear_49_28" x1="79.1781" y1="101.01" x2="27.2925" y2="11.1415" gradientUnits="userSpaceOnUse">
<stop stop-color="#FA5042"/>
<stop offset="1" stop-color="#FFA739"/>
</linearGradient>
</defs>
</svg>
