<svg width="123" height="122" viewBox="0 0 123 122" fill="none" xmlns="http://www.w3.org/2000/svg">
<path opacity="0.971" fill-rule="evenodd" clip-rule="evenodd" d="M64.8632 2.16211C64.6684 0.766064 63.8677 0.0453611 62.4609 0C60.6834 0.797083 60.3629 1.99826 61.5 3.60352C63.1881 4.44097 64.3093 3.9605 64.8632 2.16211ZM123 13.6933V11.7714C122.675 11.2439 122.194 10.8835 121.559 10.6903C118.498 10.299 115.455 9.81851 112.43 9.24894C110.998 6.50496 109.596 3.74227 108.226 0.960856C107.424 0.283842 106.503 0.0836476 105.463 0.36027C104.603 1.39929 103.962 2.56043 103.541 3.84367C104.582 4.72454 105.543 5.68547 106.424 6.72648C107.508 8.77285 108.629 10.8148 109.787 12.8525C112.091 13.3419 114.414 13.7422 116.754 14.0536C116.224 14.5429 115.743 15.0634 115.312 15.6152C114.2 16.6073 113.119 17.6484 112.069 18.7382C111.909 19.6191 111.909 20.5 112.069 21.3808C112.407 22.9834 112.647 24.5848 112.79 26.1855C110.965 25.0927 109.083 24.0919 107.145 23.1826C106.493 22.9842 105.933 23.1043 105.463 23.5429C103.66 24.2641 101.938 25.1451 100.298 26.1855C100.694 23.806 100.934 21.4037 101.019 18.9785C99.6562 17.3359 98.1747 15.8144 96.5742 14.414C96.5476 14.2658 96.4675 14.1457 96.334 14.0538C98.7001 13.7887 101.022 13.3483 103.301 12.7325C104.532 10.8299 105.573 8.82794 106.424 6.72663C105.543 5.68563 104.582 4.72469 103.541 3.84382C102.557 5.61171 101.596 7.41347 100.658 9.2491C97.9484 9.76778 95.2256 10.2082 92.4903 10.5704L92.4903 10.5703C90.0795 10.7974 89.3989 11.9985 90.4483 14.1738C92.8136 16.2187 95.0156 18.4209 97.0547 20.7802C96.5757 23.2945 96.1351 25.817 95.7334 28.3476C95.0219 30.9047 95.9427 31.9857 98.4961 31.5908L106.424 27.3867L109.608 28.979L111.229 29.789C112.297 30.4439 113.418 31.0445 114.592 31.5908C116.404 32.1304 117.365 31.4899 117.475 29.6689C116.967 26.5831 116.526 23.5001 116.153 20.4199C116.883 19.7306 117.564 19.0099 118.195 18.2577L123 13.6933ZM50.9297 0.720696C52.6207 0.402998 53.5816 1.08366 53.8125 2.76269C53.6095 3.92662 52.9289 4.6073 51.7705 4.80468C49.4153 3.87937 49.1351 2.51803 50.9297 0.720696ZM75.5537 4.32428C76.0003 2.41656 75.2395 1.45562 73.2715 1.44147C71.9339 2.04441 71.4935 3.08542 71.9502 4.56452C73.2681 5.90512 74.4693 5.82503 75.5537 4.32428ZM40.3594 3.36332C42.7903 3.35174 43.5509 4.47284 42.6416 6.7266C41.4111 7.62335 40.2899 7.46318 39.2783 6.24613C38.9117 4.98223 39.2721 4.0213 40.3594 3.36332ZM83.3613 5.0449C85.3192 4.72291 86.24 5.52369 86.124 7.44724C85.6236 8.74535 84.7028 9.18577 83.3613 8.76853C82.3137 8.23382 81.9533 7.393 82.2803 6.24607C82.5265 5.72068 82.8868 5.3203 83.3613 5.0449ZM33.1524 9.96972C32.8672 8.5239 31.9863 7.84324 30.5098 7.92773C30.1247 8.19112 29.7643 8.51143 29.4287 8.88867C28.7885 10.491 29.3088 11.532 30.9902 12.0117C32.2195 11.8634 32.9402 11.1827 33.1524 9.96972ZM23.9033 17.2969C24.3004 15.2517 23.4597 14.2908 21.3809 14.4141C19.8932 15.5409 19.8131 16.7821 21.1406 18.1377C22.2726 18.4844 23.1935 18.2041 23.9033 17.2969ZM75.9141 34.5937V34.5938C74.2322 37.0828 72.6305 39.6452 71.1094 42.2813C69.6399 42.9847 68.1184 43.5452 66.5449 43.9629C62.4204 45.3472 58.3364 46.7886 54.2931 48.2872L54.293 48.2871C51.7883 49.0188 49.306 49.8198 46.8457 50.6894C43.1891 51.8812 39.5856 53.1624 36.0352 54.5332C37.0117 55.5083 37.8927 56.5495 38.6778 57.6562C42.6707 56.4322 46.5944 55.0708 50.4492 53.5722C52.786 52.9001 55.108 52.1794 57.4159 51.4101L57.416 51.4102C61.3218 50.0015 65.2458 48.6401 69.1875 47.3262C70.4542 46.864 71.7354 46.4234 73.0312 46.0049C73.4603 45.8163 73.8207 45.5362 74.1123 45.1641C75.8004 42.5873 77.3619 39.9448 78.7969 37.2364V37.2363C80.9128 33.8083 83.0348 30.3648 85.1631 26.9062C85.9035 27.4167 86.6643 27.8971 87.4453 28.3476C87.7655 25.1445 87.7655 21.9413 87.4453 18.7382C84.6836 20.239 81.9608 21.8005 79.2773 23.4228L81.6797 24.8642C79.6615 28.0612 77.7396 31.3044 75.9141 34.5937ZM13.6933 22.3418C15.3592 22.0475 16.3201 22.7282 16.5762 24.3838C16.152 25.9984 15.111 26.5588 13.4531 26.0654C12.1618 24.7206 12.2419 23.4795 13.6933 22.3418ZM9.96971 34.8341C10.9219 32.7056 10.2413 31.5844 7.92772 31.4708C7.07025 31.8578 6.58978 32.5384 6.48631 33.5128C7.0593 35.5418 8.22042 35.9821 9.96971 34.8341ZM113.39 40.4794C112.221 39.3499 111.099 38.1889 110.027 36.9961C104.982 36.956 99.9368 36.9961 94.8926 37.1163C94.5204 37.4079 94.2403 37.7683 94.0517 38.1973C93.9316 43.0013 93.8915 47.806 93.9316 52.6114L93.9317 62.7012H85.043L76.875 62.7012L80.4785 66.5449H87.9258H93.9317V71.8301L93.9316 79.9981V89.6074V97.7754C93.9718 100.899 93.9316 104.022 93.8115 107.145C92.5753 108.06 91.3342 108.941 90.0879 109.787C88.2249 110.845 86.303 111.806 84.3222 112.67C82.1722 113.626 80.01 114.507 77.8359 115.313C76.7323 115.628 75.6111 115.869 74.4726 116.033V113.631V102.58V92.9707V83.6016L74.4726 73.9922L74.4726 66.545H80.4785L76.875 62.7012C75.1114 62.6614 73.3498 62.7012 71.5898 62.8214C70.9758 63.0748 70.5753 63.5152 70.3887 64.1426L70.3887 70.1485H66.5449L58.3769 70.1484L50.209 70.1484C47.3396 69.8174 46.2185 71.0988 46.8457 73.9922C46.8702 74.0663 46.8936 74.1412 46.9157 74.2168C46.8936 74.1412 46.8702 74.0664 46.8457 73.9923V77.3555H39.6387L31.4707 77.3555L31.4707 77.3556C29.2272 77.3157 26.9848 77.3556 24.7441 77.4757C24.3069 77.5237 23.9867 77.7241 23.7832 78.0762L23.7832 78.0761C23.6098 78.1766 23.4897 78.3366 23.4228 78.5566C23.3028 80.637 23.2627 82.7192 23.3027 84.8027L11.5313 84.8028C9.92769 84.7629 8.32612 84.8028 6.72657 84.9229C5.52662 86.0787 5.44653 87.32 6.48633 88.6466L6.48644 88.6467C12.3321 100.418 21.1406 109.227 32.9119 115.072L32.9121 115.072C34.0126 115.822 35.2138 116.383 36.5156 116.754V116.754C40.8788 118.769 45.4432 120.21 50.209 121.078C48.8305 119.338 47.3089 117.696 45.6445 116.153V116.153C47.3089 117.696 48.8305 119.338 50.209 121.078C53.2314 121.565 56.2741 121.805 59.3378 121.799C59.3378 121.799 59.3379 121.799 59.3379 121.799C61.8282 121.963 64.3105 121.883 66.7852 121.559C66.7852 121.559 66.7852 121.559 66.7852 121.559C69.3201 121.436 71.8025 121.035 74.2324 120.357C76.4949 119.973 78.657 119.332 80.7187 118.436C82.9255 117.812 85.0074 116.931 86.9648 115.793C88.9926 115.038 90.8345 113.997 92.4902 112.67C96.0053 110.791 99.1284 108.388 101.859 105.463C103.564 103.985 105.166 102.384 106.664 100.658C109.263 97.7001 111.506 94.4971 113.391 91.0488C117.101 84.8059 119.583 78.0793 120.838 70.8691C122.576 59.8217 121.415 49.0911 117.354 38.6777C117.142 38.0526 116.782 37.532 116.273 37.1162C114.193 36.996 112.111 36.9562 110.027 36.996C111.1 38.1888 112.221 39.3499 113.391 40.4794L113.39 40.4794ZM64.1426 117.715C66.249 117.65 68.3311 117.41 70.3887 116.994V106.904V97.5351V90.5684V83.8419V83.8418L70.3887 74.2325C70.3887 74.0723 70.3087 73.9922 70.1484 73.9922L61.9805 73.9922L53.5723 73.9922H50.9297L50.9297 73.9923L50.9297 106.424C50.8896 109.948 50.9297 113.472 51.0498 116.994C52.5916 117.313 54.1532 117.553 55.7344 117.715C55.7344 117.715 55.7344 117.715 55.7344 117.715C58.5406 117.99 61.3434 117.99 64.1426 117.715C64.1426 117.715 64.1426 117.715 64.1426 117.715ZM104.021 98.0156C106.362 95.016 108.524 91.893 110.508 88.6465C114.004 82.0826 116.246 75.1158 117.234 67.746C118.216 58.5837 117.095 49.6951 113.871 41.08C112.278 40.8406 110.677 40.7606 109.067 40.8397L109.066 40.8399H98.0156V61.0192L98.0156 61.0195V74.2324L98.0156 86.4844V92.0098V98.9765C97.9758 100.58 98.0156 102.182 98.1357 103.781C98.4651 103.411 98.8255 103.091 99.2168 102.82C100.816 101.229 102.418 99.6273 104.021 98.0156ZM3.3633 41.8008C5.04256 41.4015 6.0035 42.0422 6.24611 43.7227C5.95843 45.3498 4.99749 45.9504 3.3633 45.5244C2.0965 44.2615 2.0965 43.0205 3.3633 41.8008ZM0 54.0528V55.0137C0.542219 56.2851 1.50316 56.7254 2.88281 56.335C4.35281 55.2299 4.43288 54.0288 3.12305 52.7315C1.61826 52.2402 0.577245 52.6808 0 54.0528ZM38.6777 57.6563C37.8926 56.5495 37.0117 55.5084 36.0352 54.5332C33.5814 55.191 31.1791 55.9917 28.8281 56.9356C26.4068 57.6892 24.0045 58.4902 21.6211 59.3379C19.2153 60.1533 16.813 60.9941 14.4141 61.8604C14.1255 62.0773 13.9252 62.3574 13.8135 62.7012C13.6147 64.9023 14.6157 65.7431 16.8164 65.2237C19.4117 64.3192 21.9742 63.3984 24.5039 62.461C27.0184 61.7561 29.501 60.9554 31.9512 60.0586C34.2284 59.3 36.4705 58.4993 38.6777 57.6563ZM45.884 116.033C39.1894 114.167 33.0236 111.204 27.3867 107.145C27.1477 104.465 27.0677 101.742 27.1465 98.9766L27.1465 89.3672L27.1465 81.4395H33.8731L33.8732 81.4395L40.8398 81.4395H46.8457V84.8028L46.8457 92.9707V101.139V109.307C46.8856 111.63 46.8457 113.952 46.7256 116.273C46.4827 116.072 46.2024 115.992 45.8848 116.033L45.884 116.033ZM23.3027 88.6465V93.9317L23.3027 93.9317C23.3428 97.216 23.3027 100.499 23.1826 103.781C18.2892 99.4905 14.2452 94.5256 11.0508 88.8868C12.8856 88.6473 14.7275 88.5671 16.5762 88.6466L16.5762 88.6465H23.3027ZM47.2061 75.914L50.5693 79.2773L50.5693 79.2774L47.206 75.9141L47.2061 75.914ZM0 64.3829C1.83387 62.879 3.11512 63.2393 3.84375 65.4639C3.69805 67.0994 2.81718 67.7399 1.20117 67.3858C0.76321 67.1463 0.362819 66.8659 0 66.545V64.3829ZM2.64256 74.4726C5.00406 74.0712 5.92497 75.0321 5.40525 77.3554C4.31423 78.6181 3.19313 78.6181 2.04197 77.3554C1.74729 76.2595 1.94748 75.2985 2.64256 74.4726ZM13.2129 85.1631C13.1758 85.1604 13.1389 85.1574 13.1022 85.1541C13.1389 85.1574 13.1758 85.1605 13.2129 85.1632C13.3591 85.3044 13.5046 85.446 13.6493 85.5882C13.5046 85.446 13.3591 85.3043 13.2129 85.1631Z" fill="url(#paint0_linear_223_211)"/>
<defs>
<linearGradient id="paint0_linear_223_211" x1="61.5" y1="121.882" x2="61.5" y2="0" gradientUnits="userSpaceOnUse">
<stop stop-color="#FA5042"/>
<stop offset="1" stop-color="#FFA739"/>
</linearGradient>
</defs>
</svg>
