<svg width="136" height="106" viewBox="0 0 136 106" fill="none" xmlns="http://www.w3.org/2000/svg">
<path d="M46.9811 0.226502C38.0462 1.49913 29.8537 6.45707 24.6306 13.8277C22.7482 16.4525 20.5741 21.0658 19.7787 24.0617C16.8623 34.9851 19.6462 47.5258 27.8917 60.6232C28.7402 61.9754 29.4295 63.142 29.4295 63.2215C29.4295 63.2746 27.9978 63.3276 26.2479 63.3276H23.0664V59.4036C23.0398 53.8359 22.6952 52.6958 20.5211 51.4762C19.5932 50.946 19.1159 50.8664 16.226 50.8664C12.5672 50.8664 11.6127 51.1316 10.4727 52.5103C10.1015 52.9345 9.67727 53.8359 9.51819 54.4722L9.22654 55.6388H6.31011C2.99598 55.6388 2.09453 55.9039 0.848418 57.3356L0 58.3166V71.5466V84.7766L0.821905 85.7311C2.17407 87.2689 2.78387 87.4545 6.17754 87.4545H9.22654L9.5447 88.7006C9.91588 90.2383 11.4802 91.8556 12.8323 92.0942C13.3096 92.2003 15.139 92.2268 16.8888 92.1738C19.8848 92.0942 20.1234 92.0412 21.0249 91.3519C22.7482 90.0262 22.9073 89.4695 23.0133 84.1934L23.1194 79.5005H33.0883H43.0572L46.769 83.1593C53.2912 89.549 61.3512 96.2568 69.6763 102.249C74.9789 106.04 76.4902 106.57 79.1945 105.536C82.5352 104.264 97.356 92.6245 105.681 84.7766C113.9 77.0083 119.892 70.0884 125.009 62.3996C135.826 46.1736 138.319 30.7165 132.088 18.3084C130.895 15.9487 130.1 15.3389 128.853 15.8692C128.429 16.0283 127.952 16.532 127.766 16.9562C127.475 17.6721 127.554 17.9637 128.535 20.0583C131.266 25.8646 132.062 31.3528 131.107 37.7425C130.02 45.0866 126.998 52.2451 121.536 60.4907C113.927 71.9443 101.28 84.6176 85.9023 96.1773C80.4406 100.287 77.7893 102.037 76.9939 102.037C75.191 102.037 59.2302 89.6285 51.1702 81.9132L48.6515 79.5271L57.931 79.5801L67.2106 79.6331L67.3432 84.538C67.4757 89.1513 67.5022 89.496 68.0855 90.3179C69.1991 91.8556 70.3391 92.2268 73.9714 92.2268C76.066 92.2268 77.4712 92.0942 78.0279 91.8556C79.1945 91.3784 80.2815 90.0262 80.6527 88.621L80.9709 87.4545H84.0199C86.7772 87.4545 87.1484 87.4014 88.1824 86.7916C88.9248 86.3674 89.4816 85.7576 89.8528 84.9887C90.383 83.8752 90.4095 83.4775 90.4095 71.5466C90.4095 59.6158 90.383 59.2181 89.8528 58.1045C89.4816 57.3356 88.9248 56.7258 88.1824 56.3016C87.1484 55.6918 86.7772 55.6388 84.0199 55.6388H80.9709L80.6527 54.4722C80.2815 53.067 79.1945 51.7149 78.0279 51.2376C77.4712 50.999 76.066 50.8664 73.9714 50.8664C70.3391 50.8664 69.1991 51.2376 68.0855 52.7754C67.5022 53.5973 67.4757 53.9154 67.3962 58.5022L67.3167 63.3276H63.8965C62.014 63.3276 60.2907 63.4071 60.0521 63.4867C59.3627 63.7518 58.859 65.157 59.1506 65.9524C59.6279 67.1455 60.0786 67.278 63.8434 67.3045H67.3432V71.4141V75.5236H45.2048H23.0664V71.4141V67.3045H37.8606C53.6889 67.278 53.2647 67.3311 53.795 65.9524C54.0866 65.157 53.5829 63.7518 52.8936 63.4867C52.6549 63.4071 48.4128 63.3276 43.4814 63.3276H34.4935L33.3269 61.6573C28.5015 54.8964 24.7897 46.7569 23.305 39.731C22.43 35.5684 22.4566 29.4439 23.411 25.9177C24.339 22.3384 25.479 19.7666 27.388 16.8767C36.1638 3.54063 53.9541 -0.0121156 67.4227 8.89627C68.4832 9.58561 70.6043 11.4415 72.142 13.0058C76.5167 17.407 77.5507 17.4335 81.6602 13.2444C85.6902 9.13489 89.2695 6.88128 94.1214 5.31701C103.746 2.26801 113.582 4.33603 121.774 11.1499C122.623 11.8392 123.551 12.4225 123.842 12.4225C124.134 12.4225 124.744 12.0513 125.195 11.6271C126.255 10.5401 126.07 9.74469 124.267 8.10088C117.479 1.92334 107.484 -1.04612 98.1513 0.332554C90.9133 1.39308 84.7622 4.52162 79.5392 9.7712L77.0469 12.2899L74.5017 9.74469C73.123 8.36601 71.1876 6.66918 70.2331 5.97984C66.6803 3.48761 62.2261 1.55215 57.7985 0.597685C55.4388 0.12045 49.3408 -0.118168 46.9811 0.226502ZM18.9303 55.2676C19.1689 55.9039 19.1159 87.534 18.8773 87.9317C18.7182 88.1703 17.9493 88.2499 16.0139 88.1968L13.3891 88.1173L13.3096 79.6331C13.2565 71.3875 13.23 71.1489 12.6732 70.5656C11.9839 69.8233 10.8969 69.7703 10.0484 70.4596C9.41214 70.9633 9.41214 71.0164 9.3326 77.2204L9.25306 83.504L6.54873 83.4245L3.84439 83.3449V71.5466V59.7483H6.4957H9.14701L9.22654 61.074C9.30608 62.9299 9.49168 63.5397 10.075 64.123C10.7643 64.8123 11.6657 64.7858 12.5672 64.0965L13.2565 63.5662V59.3771C13.2565 57.0705 13.3361 55.1085 13.4421 55.029C13.5217 54.9229 14.7678 54.8434 16.1995 54.8434C18.294 54.8434 18.7978 54.9229 18.9303 55.2676ZM76.7553 71.5466V88.1173L74.051 88.1968L71.3201 88.2764V71.5466V54.8169L74.051 54.8964L76.7553 54.976V71.5466ZM86.3 71.5466V83.3449H83.6487H80.9974L80.9179 71.8118C80.8913 65.4751 80.9179 60.1195 80.9974 59.9339C81.0769 59.6953 81.7928 59.6158 83.7017 59.6688L86.3 59.7483V71.5466Z" fill="url(#paint0_linear_71_21257)"/>
<path d="M65.6194 22.4979C65.3013 22.6039 64.9301 22.8691 64.771 23.0547C64.6119 23.2668 63.0211 28.2512 61.2448 34.1636C59.4684 40.076 57.9041 44.981 57.8246 45.1135C57.6655 45.2726 56.1808 40.6063 53.3704 31.1677C52.7341 29.0466 52.9727 29.0996 41.2009 29.1792L30.9668 29.2587L30.3305 30.0011C29.5617 30.9025 29.5351 31.4858 30.251 32.4138L30.7813 33.1031H40.2994C49.1283 33.1031 49.8176 33.1296 49.9502 33.5538C53.4499 45.2726 56.0482 53.4651 56.3929 53.8363C56.8701 54.3666 58.0897 54.4726 58.8321 54.0484C59.4684 53.7038 59.4684 53.7833 62.9946 42.1175C64.6915 36.4968 66.1497 31.804 66.2822 31.6979C66.3883 31.5919 66.733 32.4668 67.0776 33.6334C67.4223 34.8265 67.926 36.0726 68.1912 36.4438L68.6949 37.0801H79.1146C89.216 37.0801 89.5342 37.0536 90.0114 36.5498C90.6742 35.8074 90.6212 34.5348 89.9054 33.819C89.3486 33.2357 89.1895 33.2357 80.2016 33.1561L71.0811 33.0766L70.2327 30.3723C69.782 28.8875 69.1191 26.687 68.7479 25.4674C67.8995 22.6835 67.0511 21.8881 65.6194 22.4979Z" fill="url(#paint1_linear_71_21257)"/>
<defs>
<linearGradient id="paint0_linear_71_21257" x1="67.7221" y1="0" x2="67.7221" y2="106" gradientUnits="userSpaceOnUse">
<stop stop-color="#FFA739"/>
<stop offset="1" stop-color="#FA5042"/>
</linearGradient>
<linearGradient id="paint1_linear_71_21257" x1="60.1052" y1="22.305" x2="60.1052" y2="54.3102" gradientUnits="userSpaceOnUse">
<stop stop-color="#FFA739"/>
<stop offset="1" stop-color="#FA5042"/>
</linearGradient>
</defs>
</svg>
