<svg width="126" height="125" viewBox="0 0 126 125" fill="none" xmlns="http://www.w3.org/2000/svg">
<path fill-rule="evenodd" clip-rule="evenodd" d="M72.2248 0.780575C58.0428 5.99764 53.9049 12.7144 57.7599 24.2602C61.0856 34.2217 67.28 37.76 74.7724 33.9768L77.5198 32.589L78.2171 34.7149C79.0857 37.3715 81.0327 40.2831 82.9348 41.7765C84.3742 42.9049 84.3875 42.9995 83.9465 49.0331C82.8499 64.0806 82.4705 68.447 82.2392 68.6759C82.1044 68.8103 79.6299 67.7669 76.7427 66.3553C64.7612 60.5015 50.2192 61.5886 39.5777 69.1337C38.7591 69.7143 37.9818 69.2614 34.7555 66.3238C22.897 55.5249 5.81413 51.1482 1.34471 57.7634L0.00329457 59.7492V86.854C0.00329457 119.69 -0.452506 118.017 9.35831 121.213C20.7209 124.914 30.4215 124.655 39.3351 120.412L43.2741 118.536L47.5375 120.304C64.3474 127.273 84.6288 126.44 101.055 118.11C111.565 112.778 122.692 102.114 125.231 94.9354C126.779 90.563 126.266 86.5953 121.127 63.0968C118.395 50.6043 115.333 36.3469 114.325 31.4135C110.89 14.6306 108.469 11.1656 95.9629 5.15135C91.8609 3.17794 87.4711 1.19741 86.2097 0.749216C83.3558 -0.263942 75.0137 -0.245687 72.2248 0.780575ZM73.594 6.98492C67.573 9.14725 64.6469 11.1294 63.261 13.9845L61.9735 16.6376L63.277 21.1295C65.3129 28.1444 67.8283 30.4964 71.4422 28.7638C74.5245 27.2859 75.0287 25.4082 73.6255 20.6529C72.2183 15.887 72.6642 13.9367 75.2284 13.6361C77.5398 13.3651 78.3469 14.8089 81.6068 25.0309C85.8003 38.1798 86.5126 38.9074 95.2008 38.9074C100.188 38.9074 101.824 39.7281 101.824 42.2311C101.824 44.3168 100.621 44.8123 95.5586 44.8123H90.7127L90.3466 47.9123C90.1453 49.617 89.5728 56.3793 89.0736 62.939L88.165 74.8647L90.2401 77.7442C92.9177 81.4615 93.53 83.1517 92.7928 84.7673C91.4333 87.7431 88.5294 86.9187 86.1581 82.8847C75.1285 64.1105 46.1996 64.1679 35.1444 82.9842C33.2791 86.159 31.9958 86.9419 29.9368 86.1607C27.1965 85.1223 28.4829 80.3518 32.7835 75.6045L34.0421 74.2144L30.0961 70.547C24.1662 65.0333 14.8698 60.7554 8.82081 60.7554H6.51505V113.644L9.32703 114.716C19.7915 118.702 29.5715 118.405 38.5365 113.823L43.0302 111.528L47.4558 113.568C69.8487 123.887 95.6135 119.13 113.191 101.428C119.656 94.9155 121.171 90.1201 119.13 82.6043C118.733 81.1413 116.952 73.3038 115.172 65.1843C112.298 52.0776 111.176 46.7514 107.33 27.9844C105.385 18.4853 102.922 15.3899 93.7264 10.8921C82.8216 5.55757 79.4119 4.89573 73.594 6.98492Z" fill="url(#paint0_linear_134_38)"/>
<defs>
<linearGradient id="paint0_linear_134_38" x1="63" y1="0" x2="63" y2="125" gradientUnits="userSpaceOnUse">
<stop stop-color="#FFA739"/>
<stop offset="1" stop-color="#FA5042"/>
</linearGradient>
</defs>
</svg>
