<svg width="465" height="494" viewBox="0 0 465 494" fill="none" xmlns="http://www.w3.org/2000/svg">
<path fill-rule="evenodd" clip-rule="evenodd" d="M463.633 141.226C464.009 142.521 464.385 143.814 464.576 145.138C464.757 146.37 464.634 147.386 464.514 148.385C464.363 149.64 464.216 150.868 464.676 152.46C463.846 153.494 462.988 153.864 462.117 154.24C461.415 154.543 460.705 154.85 459.994 155.51C459.633 155.853 459.308 156.585 458.96 157.366C458.059 159.393 457.009 161.753 454.811 158.516C453.425 159.609 453.52 160.474 453.641 161.576C453.698 162.101 453.762 162.681 453.674 163.364C453.567 164.17 453.354 164.947 453.143 165.722C452.817 166.916 452.492 168.103 452.561 169.373C450.879 171.079 450.714 171.034 448.925 170.546C448.684 170.481 448.414 170.407 448.106 170.329C447.997 171.38 447.168 171.45 446.261 171.526C446.029 171.546 445.792 171.566 445.56 171.603L448.424 179.912H448.742V178.957L450.335 179.912V180.231C450.039 180.662 449.858 181.142 449.789 181.642C449.767 181.686 449.767 181.754 449.767 181.823C449.484 184.046 451.084 186.746 452.547 189.214C453.435 190.713 454.273 192.127 454.608 193.297C454.926 194.415 454.972 195.529 454.904 196.622C454.895 197.017 454.875 197.41 454.855 197.803C454.783 199.264 454.711 200.702 455.178 202.085C455.376 202.668 455.801 203.002 456.221 203.332C456.767 203.76 457.303 204.182 457.316 205.135C457.341 206.869 456.517 208.574 455.697 210.27C455.086 211.535 454.477 212.795 454.224 214.059C453.938 215.44 454.196 216.919 454.456 218.409C454.65 219.522 454.845 220.641 454.816 221.732C455.907 221.276 456.43 221.276 457.044 222.369L454.816 222.05L452.565 225.237L454.816 226.83L451.929 230.335L451.293 232.248L450.34 230.017L450.976 228.743H450.658C450.451 229.098 450.246 229.425 450.052 229.735C449.177 231.133 448.505 232.205 448.747 234.162L447.155 237.052L448.747 236.734L446.519 238.329L446.201 237.373C443.405 239.786 442.904 241.266 443.973 244.703L442.062 246.298H441.426L440.79 245.024L440.154 247.574V247.892L440.79 248.848L439.518 248.529L438.564 252.057L435.042 257.476L435.36 258.113C431.61 260.753 430.155 262.848 431.224 267.378C433.998 265.557 436.02 268.789 433.134 270.246C433.833 270.627 434.578 270.636 435.315 270.644C436.208 270.654 437.09 270.665 437.862 271.339C438.99 272.292 438.769 273.223 438.54 274.187C438.381 274.854 438.219 275.538 438.498 276.255C438.834 277.109 439.615 277.748 440.379 278.373C440.858 278.764 441.33 279.15 441.681 279.58C443.613 281.924 443.681 285.317 442.84 288.095C442.575 288.969 441.866 289.22 441.156 289.471C440.404 289.737 439.653 290.003 439.43 291.01C439.215 291.935 439.301 293.317 439.392 294.781C439.54 297.168 439.702 299.772 438.589 300.958C438.105 301.491 436.857 301.967 435.823 302.361C435.398 302.522 435.009 302.67 434.724 302.803V303.44L435.996 304.395C433.359 304.258 432.359 307.81 435.042 306.946C435.793 308.561 437.208 308.306 438.699 308.038C438.971 307.989 439.247 307.94 439.521 307.901L439.839 310.77H440.157C441.316 308.7 443.522 309.905 443.772 312.068C443.87 312.92 443.407 313.61 442.937 314.311C442.541 314.903 442.14 315.502 442.067 316.211H441.113C443.045 319.123 446.661 324.314 450.024 325.453L453.228 332.171L452.568 333.765L451.296 333.128L447.023 337.339L447.16 341.438C449.001 343.875 445.636 348.564 443.659 350.044L443.977 349.407H443.659L439.022 352.709L436.634 357.079V357.398L437.27 358.035L436.316 357.716C436.248 359.583 435.68 361.587 433.452 361.222L434.406 361.859V362.177C430.04 362.655 426.608 364.794 426.767 369.189C428.154 368.733 429.426 368.574 429.949 370.144L434.724 367.594L435.996 367.912C435.777 368.361 435.586 369.134 435.366 370.02C434.696 372.726 433.763 376.493 430.972 375.379C430.393 375.145 430.256 374.474 430.127 373.848C429.994 373.195 429.87 372.59 429.267 372.579C428.732 372.565 428.16 373.039 427.621 373.485C427.313 373.74 427.016 373.986 426.742 374.127C425.92 374.557 425.14 374.577 424.292 374.6C424.061 374.606 423.826 374.612 423.582 374.627C424.377 376.129 425.15 376.266 426.765 375.901C427.67 378.784 429.862 380.782 432.086 382.81C433.322 383.936 434.567 385.072 435.607 386.373C435.961 386.814 436.432 387.163 436.893 387.504C437.766 388.15 438.607 388.772 438.562 389.948H439.834L443.334 396.003L439.198 398.553V400.146L437.901 399.827C439.712 403.704 439.025 406.628 438.163 410.293C438.084 410.63 438.004 410.973 437.923 411.324C437.843 411.674 437.886 412.049 437.929 412.42C437.995 412.992 438.059 413.555 437.674 414.011C437.119 414.646 436.338 415.027 435.542 415.414C434.542 415.901 433.519 416.399 432.899 417.426C432.273 418.473 432.201 419.732 432.128 421.022C432.062 422.17 431.995 423.344 431.534 424.415L432.488 425.371L431.216 424.734L430.534 428.717L428.125 430.309L422.283 435.273C425.899 437.526 425.148 441.6 420.694 441.26C420.043 441.208 419.417 441.039 418.79 440.87C418.059 440.673 417.328 440.475 416.557 440.464C416.067 440.443 415.577 440.546 415.09 440.649C414.468 440.78 413.849 440.91 413.238 440.782C412.111 440.546 410.74 440.014 409.269 439.444C405.783 438.093 401.733 436.524 399.031 438.141L396.485 436.546L392.006 435.91V436.546C395.301 437.776 398.349 439.075 401.167 441.169C403.735 443.102 402.326 444.765 399.667 445.243C398.916 445.38 398.19 445.449 397.439 445.471L397.757 446.426C397.28 447.017 397.392 447.085 398.075 447.382L397.757 448.68L402.531 451.549C399.476 453.281 397.389 452.615 395.025 451.861C393.661 451.426 392.204 450.962 390.416 450.912L390.444 450.973C391.418 453.104 393.691 458.08 389.144 457.923L389.462 460.155L390.737 461.11L390.419 462.065L392.011 463.021C391.013 463.68 390.649 464.045 390.739 465.274C387.13 466.619 383.421 465.761 379.784 464.92C378.861 464.707 377.943 464.494 377.031 464.319L377.667 466.551L375.757 467.188H375.121V466.551H370.667L370.349 467.188H370.031C368.871 466.46 367.575 465.686 366.849 467.188L361.734 467.756L354.095 465.911L354.413 466.867L353.777 468.141H352.505V468.459C356.12 470.691 350.255 471.191 351.869 469.096V468.778L341.662 467.183L339.115 465.588L338.797 466.543L333.683 463.993L332.411 464.312L330.5 462.695H330.182L329.864 463.356L327.954 462.058L325.726 466.862H326.362C325.77 468.342 324.794 469.299 323.179 469.412C323.016 469.964 322.878 470.525 322.746 471.064C322.033 473.971 321.466 476.282 317.747 473.555C316.974 475.877 315.474 476.061 313.292 475.786V477.06L312.338 476.742L312.656 478.995L310.428 478.358L310.746 479.314L308.518 478.995L306.95 480.11L304.677 478.88L294.494 478.675L293.858 479.311V479.63C295.404 480.997 293.154 481.815 291.948 481.862L292.584 478.993C290.516 479.5 289.79 479.251 288.652 478.861C288.102 478.672 287.456 478.451 286.515 478.265C285.526 478.076 284.439 478.072 283.363 478.068C282.115 478.063 280.882 478.059 279.833 477.766C278.615 477.423 277.485 476.977 276.37 476.538C274.157 475.665 271.998 474.814 269.308 474.828L269.626 474.191C268.888 474.124 268.075 473.903 267.238 473.675C265.569 473.222 263.804 472.743 262.351 473.395C260.486 474.217 260.052 475.992 259.625 477.732C259.402 478.643 259.182 479.543 258.76 480.294C257.995 481.651 256.85 482.627 255.718 483.593C254.931 484.263 254.151 484.928 253.509 485.713C252.702 486.691 252.041 487.824 251.378 488.962C250.266 490.869 249.149 492.788 247.325 494L247.643 493.339L241.256 493.042L226.049 490.948L220.866 488.875L221.184 488.238C219.594 488.123 217.933 487.373 217.048 486.007L210.979 484.733C210.001 483.184 206.569 482.913 204.932 483.459L205.25 482.503L203.34 482.185C200.772 482.481 197.863 480.387 196.953 478.043L195.361 478.361C194.979 476.99 194.464 476.838 193.182 476.462L193.133 476.448L193.451 475.492L188.676 473.875L189.312 472.92H187.402L188.355 471.965L186.445 470.37L183.581 471.007L184.535 469.412L181.013 468.775L181.648 466.862C180.756 466.608 179.96 466.136 179.17 465.667C178.328 465.168 177.493 464.672 176.556 464.449C174.192 463.875 171.586 464.532 169.185 465.137C168.541 465.299 167.911 465.458 167.305 465.588L168.283 468.457L166.669 470.211L163.805 470.644L150.733 466.864L145.958 468.138L139.593 467.501C138.27 465.03 134.678 463.658 131.568 462.471C130.408 462.028 129.315 461.61 128.432 461.171C128.075 460.996 127.715 460.734 127.35 460.468C126.578 459.905 125.781 459.324 124.932 459.51H124.296L120.84 458.599L115.361 455.365L117.907 457.915H118.861L122.065 461.443L120.769 461.125L121.087 462.08L115.676 462.717L114.404 462.08V461.762H115.04V461.443L112.176 459.508L111.222 459.826L110.904 458.871L109.95 459.189V457.915L109.314 458.552L107.724 457.915L108.042 456.96L105.792 456.323H108.042V456.005H106.746L101.335 452.181V451.225L100.381 451.544L100.063 450.588L95.9267 448.994C96.2911 447.717 95.8826 447.308 94.9727 446.443L94.6547 447.08H94.3368L93.0648 446.443L93.7008 445.488L92.4288 445.147L92.7468 443.553L90.8145 442.916L88.9041 442.279L90.176 442.597L90.4939 441.642L87.3117 440.368L87.6297 438.773L85.4014 438.136V437.818L88.2656 437.499L85.7194 436.862V436.544L88.5836 435.907L88.2656 433.675L86.3553 432.72L86.6732 431.446L84.763 430.491V429.511L85.0808 428.237L87.3092 427.6L83.491 423.776C81.8682 423.914 81.0034 423.074 80.0274 422.127C79.7044 421.813 79.3691 421.488 78.9902 421.182C77.9523 420.337 76.9347 419.468 75.9175 418.598C73.727 416.726 71.5375 414.855 69.1473 413.237C68.9912 411.753 68.0747 411.127 67.0668 410.438C66.6061 410.123 66.1262 409.795 65.6911 409.367C64.8506 408.525 64.021 407.637 63.1852 406.743C61.331 404.758 59.4468 402.742 57.3476 401.126L57.6656 399.827C55.0753 399.575 52.3918 397.049 51.3009 394.727L45.8683 392.495L43.322 388.032H42.05L42.686 387.077H41.414L40.778 384.823L39.8241 385.163C39.1712 384.402 38.4148 383.725 37.6803 383.068C35.4733 381.094 33.4637 379.297 35.0494 375.898C33.6845 375.602 33.5035 374.987 33.457 373.667L34.411 373.985V371.753L34.729 371.116L35.365 371.753V371.116L37.0919 371.298L38.5472 371.435C39.1367 369.044 40.3868 366.109 43.0016 365.676C43.1606 364.287 43.5469 363.535 44.9118 363.125L43.64 359.62L45.8683 359.938V358.025L46.2083 356.751L45.5503 357.07L44.5963 356.433L44.9143 355.477H45.2323V353.224L44.2784 354.179L43.0064 353.542C43.051 353.432 43.0935 353.337 43.1308 353.253C43.341 352.78 43.3843 352.682 42.6884 352.587V352.268L43.9604 351.95V351.631L41.414 350.036V349.718L43.9604 349.4V349.081L40.778 348.126L41.096 346.852L42.6884 347.807H43.0064L43.6424 347.17V346.852L40.4601 346.533L38.8678 344.939L39.5036 343.665L37.5934 343.028L38.5472 342.391L37.2754 342.072V341.754H38.5472V341.435H37.2754V341.117L37.9112 340.798V339.5H36.6394V339.182H38.5498L36.0034 330.894C37.6618 330.279 38.5717 330.417 40.1396 331.213L40.4576 329.939L39.5036 328.983L38.2318 329.302L38.8678 328.028L38.2318 328.347V328.028L37.9138 326.433L36.6418 326.752L37.2778 325.478C36.1868 324.863 36.5268 323.589 36.9598 322.587L36.0058 322.906C37.8697 319.878 42.6883 322.313 42.3704 325.478C43.8942 325.84 45.5773 325.796 46.8492 324.816L45.5527 324.498L45.8707 323.543L43.6424 322.906L45.5527 321.632V321.313L43.0064 320.676L43.9604 319.403L42.05 319.084V318.766L43.322 318.129H42.05L40.778 317.492V317.173L41.414 316.855L40.1421 316.536L40.8246 315.625L41.0985 315.26V314.942L39.8265 313.986H41.4189V313.668H40.1469L40.4649 313.031L37.6007 312.075V311.757C38.1682 311.257 38.2831 311.142 37.6007 310.801L37.9187 309.822L36.3263 309.185L36.9622 307.59L35.3698 306.953L36.0058 305.998L34.7339 305.679L35.3698 304.405L34.0979 304.087L34.7339 303.45L32.8235 302.176V301.539L35.0519 302.176L31.8695 300.581L33.1415 299.307L32.1875 298.67L33.7799 298.352C33.983 296.644 33.1415 295.552 31.8695 294.503C31.846 294.261 31.8135 294.001 31.7799 293.732C31.5205 291.656 31.1955 289.056 34.4159 289.721L33.7799 289.085V288.766C34.3939 287.833 34.3474 287.264 33.4619 287.492L33.7799 285.261H31.8695L32.5055 283.987H31.2336L31.8695 282.392H31.2336L31.8915 282.096L36.0058 280.138V281.437H36.9598L37.2778 283.031L38.2318 282.713L38.5498 283.031L38.2318 284.305H41.414L41.732 284.942H42.05L43.322 283.347L41.4116 282.392V282.073L42.0476 281.437L41.0936 280.8L41.0472 280.753L40.1372 280.138L41.0912 279.82L39.4988 279.183L40.7707 278.546V278.227H39.8168L40.1347 277.272L37.9064 276.317L40.1347 275.998V275.68H39.1808L37.2704 274.406V274.087L37.9064 273.769L36.6344 273.45V273.132L37.2704 272.495H35.9985V272.177L37.5908 271.858L35.9985 271.221L35.6805 269.947L36.6344 269.629V269.31L34.4061 268.992L34.7241 267.397L33.1317 266.76V266.442L33.7677 266.101L32.8137 265.783L33.4497 264.509L33.3856 264.499C32.8114 264.408 31.9159 264.266 32.8137 263.872V263.553C31.5638 263.211 31.8353 262.574 32.4957 261.64H31.2238V261.322H32.4957L30.9033 258.453H29.925L28.971 257.816L29.607 256.861L28.653 256.542L30.2454 256.224L28.653 255.268V254.95H29.289V254.632L28.335 253.676H27.063V253.358L27.699 252.721L27.063 253.039L27.381 252.084L26.1092 251.765V251.425H27.7015L26.4295 249.512L25.4755 249.83L24.8395 248.556H26.1115L24.5192 246.643C24.9301 245.322 24.5876 244.752 23.2472 244.411V244.093L23.8832 243.456L22.9292 243.137C23.4306 241.408 23.3842 239.906 21.6573 238.995L21.9753 238.039H20.7033L17.203 232.917L16.2491 233.236L13.9986 230.367V228.135L15.2951 228.772V225.903L16.8875 226.222L16.5695 223.672L17.8415 223.035L18.4775 224.309C18.7684 224.309 19.0924 224.366 19.4248 224.425C20.0513 224.536 20.7074 224.652 21.2268 224.399C23.4989 223.263 22.947 216.777 22.6888 213.744C22.6577 213.378 22.6308 213.062 22.6137 212.812L23.2497 211.538H27.0679L25.7959 209.943L27.3883 210.58L26.7525 208.03V207.712L27.7063 207.075V206.756H27.0705V206.095L28.0243 206.756L27.7063 203.226L30.5926 202.271C30.2991 200.791 30.6391 200.152 32.185 200.039L32.1166 193.028L32.503 190.774C32.2755 189.476 32.5691 188.817 33.775 188.224L34.729 188.543L34.093 185.037L35.6854 183.763L34.4134 182.808L35.6854 183.445L35.0494 181.85C35.1208 181.826 35.1878 181.802 35.2504 181.781C35.7839 181.594 36.0034 181.517 36.0034 182.168L37.5958 180.895L36.6418 180.576L38.2341 179.621L38.5521 180.576L39.5061 178.663L50.6674 182.805L51.3034 181.211C49.8503 180.767 49.0142 179.723 48.1441 178.636C47.7223 178.11 47.2925 177.573 46.7807 177.09C45.9261 176.276 44.9614 175.501 43.9833 174.716C41.2685 172.538 38.4505 170.276 37.5981 166.845L34.7339 167.164L35.6878 166.845V166.527C34.4134 165.846 33.1416 161.566 33.4595 160.131H32.1875L31.5516 158.217L27.7088 157.58V155.667L25.7985 155.986C25.072 154.758 22.5696 151.958 21.2977 151.297C20.7311 150.987 20.1425 151.043 19.5444 151.1C19.0865 151.144 18.623 151.188 18.1595 151.069C16.5936 150.65 16.5794 148.291 16.5705 146.799C16.5697 146.667 16.5689 146.541 16.5671 146.424C14.822 145.599 13.7326 144.165 12.6344 142.719C12.2164 142.169 11.7971 141.617 11.3398 141.096C10.9234 140.625 10.4817 140.195 10.052 139.775C8.48734 138.25 7.08139 136.879 7.63405 134.288L6.6802 133.97L7.31605 133.333V133.014L6.04421 132.378L7.63659 132.059L8.27244 131.104L7.63659 129.487H9.86481C9.95776 128.144 10.2978 127.346 11.4572 126.618L12.0932 124.386C12.2249 124.437 12.3681 124.493 12.5207 124.552C14.2352 125.224 17.1434 126.362 18.4799 125.023L17.2079 125.342L21.0263 120.241L21.6623 121.515L23.2545 120.878C23.2545 121.498 23.4143 121.446 23.8392 121.308C23.9453 121.273 24.0678 121.233 24.2085 121.197L23.2545 120.241L23.5725 118.968L25.1649 119.286L24.8469 117.694L23.2545 118.012C20.7302 114.825 23.3671 113.87 26.4369 112.89L26.1189 111.934L27.0729 111.616L27.3909 107.792L25.1625 108.429L24.5265 104.605C26.6178 104.879 27.8679 105.107 28.0268 107.473H28.3448C28.4598 106.474 29.1178 104.879 30.2552 105.881H31.8695V104.607L33.4619 103.652V101.42L32.1899 100.465L28.3472 95.6609L27.7112 93.7476L28.3472 93.1106L27.3932 90.879L25.4829 91.5159C25.4899 91.4613 25.4969 91.4067 25.504 91.3521C25.7941 89.1045 26.0886 86.822 24.8469 84.7987L25.4829 83.8433L24.211 84.1618L24.529 83.2064C22.905 82.06 23.9313 80.9896 24.9009 79.9783C24.9901 79.8853 25.0788 79.7928 25.1649 79.7008L27.3932 80.0193C27.5634 79.0695 28.7289 79.6076 29.4591 79.9447C29.5161 79.9711 29.5705 79.9962 29.6216 80.0193V75.5584H28.9856L29.3036 74.9214L26.4392 74.2844C25.9823 73.1373 24.4307 71.8869 22.8347 70.6007C20.5351 68.7475 18.1433 66.82 18.8003 65.0196C16.3194 64.8154 15.8092 62.6835 15.3115 60.604L15.3 60.5561L14.0036 60.8746L14.3216 61.83L13.0496 62.1485C13.0055 58.8487 9.36829 54.3167 6.36698 53.202L6.68498 51.6073L5.0926 51.9258L5.7286 50.6518L2.54638 48.7387L0.432955 45.505L0 38.1974L1.27184 37.242V38.5159L4.13622 36.6026L5.09021 38.8344H5.40821L6.36221 36.6026H4.45183C4.66506 33.9164 6.30586 35.2904 7.63038 36.3995C7.8556 36.5882 8.07168 36.7691 8.27005 36.9211V31.5023L13.3628 29.91L15.6131 29.273L16.5671 30.2285C16.2956 28.521 16.2491 26.0614 18.1595 25.4465L17.5235 23.1928L22.6161 21.9189L24.2085 19.3687L22.9366 18.0949V16.821L23.2545 16.1841C25.4448 15.4663 25.2647 15.0982 24.943 14.4405C24.7135 13.9716 24.4121 13.3554 24.8469 12.3601L26.4392 12.6786L29.6216 12.3601L33.4643 8.19303L32.8283 6.27984L30.9181 5.64289V4.36905L32.5105 4.68746L31.5565 3.41362L33.1463 3.7321L32.8283 1.50036C33.2659 1.50944 33.7411 1.59615 34.225 1.68444C35.0473 1.8345 35.8946 1.98912 36.6246 1.77473C37.568 1.4961 38.1337 1.09877 38.6292 0.750676C39.4713 0.159221 40.111 -0.290087 42.0573 0.226527L42.6933 2.77667L40.7829 5.32688L39.8289 4.68992L43.0113 7.87702L44.2833 5.96376L48.444 10.1308V10.4493L47.49 11.0862L50.0364 10.7678L49.0824 13.3179C51.9932 13.7007 54.3894 15.9087 56.6427 17.985C57.3452 18.6323 58.0338 19.2668 58.7198 19.8293C59.2186 20.2348 59.7553 20.4933 60.2931 20.7523C60.9315 21.0598 61.5715 21.368 62.1516 21.9238L62.7876 20.65L63.7415 20.9684V21.2869L65.9699 23.5186C66.9837 23.0119 67.9035 23.9305 68.7393 24.7652C68.9904 25.016 69.234 25.2592 69.4702 25.4539H69.7882L71.6986 24.4985L70.4266 22.8816L72.973 22.2448C72.6945 21.9554 72.1507 21.5234 71.5904 21.0782C70.8271 20.4718 70.0331 19.841 69.8371 19.5133C68.8586 17.7372 71.904 19.0797 72.337 19.3761L71.701 18.4207L73.2934 16.5075V15.8705L72.3394 15.552L73.6114 14.2782L76.8157 15.2336C78.7016 13.0485 83.3613 15.5986 84.1343 17.7838C85.8629 17.4995 87.0743 18.8303 88.2606 20.1334C88.8838 20.8181 89.5001 21.4951 90.1809 21.9263L92.1132 20.013V19.6946L90.8414 19.0576V18.4207C92.3188 17.5535 94.1141 17.0072 94.0236 19.3761C96.8194 20.7651 95.5475 22.6759 94.0236 24.4985C96.9344 24.5671 97.798 24.6577 100.07 26.7302H100.388L101.342 26.4117V26.7302L99.4318 27.6856C102.614 28.5748 106.273 32.8325 108.365 35.3361H108.683L109.319 34.6992L109.001 35.6546L112.183 38.8417H112.501L114.411 38.2048L113.775 38.8417L113.139 39.5006V39.8191C115.231 40.7549 117.232 42.1881 118.232 44.2826C119.977 43.5937 120.195 44.3555 120.433 45.1868C120.62 45.8394 120.819 46.5349 121.779 46.6049C122.602 46.6617 123.176 46.2907 123.726 45.9342C124.483 45.4444 125.198 44.9819 126.461 45.6936C128.349 46.7396 128.393 49.1771 125.893 48.7435L128.439 51.6121H128.758C130.266 50.7619 129.949 51.9796 129.678 53.0227C129.557 53.4883 129.445 53.9192 129.508 54.1158C129.802 55.0491 131.12 55.5489 131.94 55.7767C132.111 57.3551 132.972 57.4586 133.919 57.5725C134.611 57.6556 135.348 57.7443 135.895 58.4175C136.272 58.8874 136.272 59.4313 136.271 59.9791C136.271 60.4909 136.27 61.006 136.578 61.4674C137.805 63.2876 141.191 65.9064 143.101 66.9304L142.147 64.6986C142.621 64.6986 142.464 64.1374 142.261 63.4128C141.899 62.1206 141.392 60.309 144.058 60.2353C144.42 55.522 149.057 60.5316 144.694 60.8721L145.648 62.7854C142.35 63.6501 147.761 64.9044 148.83 65.0171L149.148 62.4669L147.237 59.9168L147.873 59.2798L147.237 58.006L148.191 57.6875L147.237 56.7321L146.919 55.7767H146.601L145.33 54.5029L145.966 52.2491L147.237 52.886L144.691 50.9728V50.6543L145.645 50.9728L144.373 50.0173V49.6989L145.327 50.0173L145.645 49.6989L145.009 44.917L143.737 41.4114L146.601 39.1798H145.648L146.284 37.5629L145.648 38.1999H145.33L145.648 37.2445L145.012 37.8814H144.694L146.286 35.6497V35.3312L144.058 35.6497L144.694 34.6943L143.74 34.3758V34.0574L144.694 34.3758L143.74 33.1019L144.376 33.4204V33.1019C144.629 30.5901 147.28 31.1954 149.207 31.6355C149.532 31.7096 149.836 31.779 150.104 31.8281L149.468 33.7414L150.74 34.0598H151.08C152.807 31.9653 154.421 33.3102 154.262 35.6546C155.13 35.2622 156.014 35.369 156.852 35.4702C158.054 35.6155 159.161 35.7492 159.991 34.3807H158.719V34.0622L159.673 33.7438V33.4253L158.081 33.1069L159.673 29.2828L163.491 30.8776C164.037 32.6782 167.082 35.2504 168.924 35.6595L168.606 36.6149L169.878 36.2964L170.514 38.2097L172.424 36.6173L173.378 36.9358L173.902 31.2671L175.607 28.9668H175.925V30.5616L178.789 29.6062V27.3745H179.743V27.056L177.197 26.1006V24.5083H179.107L180.061 26.1006L181.015 24.8267H179.743L180.061 23.5284C178.835 23.3226 178.63 22.8229 178.789 21.6151L180.699 23.2099L181.36 21.2967C179.655 21.5943 179.688 20.7405 179.733 19.5759C179.743 19.3121 179.754 19.0324 179.745 18.7465L181.678 19.065V18.428C178.997 17.9969 177.904 14.5354 181.36 14.3541C184.041 14.239 183.882 17.4261 181.996 18.428L182.314 19.3835L185.178 17.1517H186.132L186.768 18.4256L188.996 17.7887L189.632 19.0625C191.156 18.5162 196.405 20.2678 195.361 22.2496L196.975 23.2051H197.293L198.247 22.5681L199.201 23.2051L202.066 27.0536L203.02 26.7351C204.453 28.6263 206.429 30.5151 208.748 31.1985C209.521 29.9247 211.023 29.7409 212.204 30.7208C213.013 31.3811 213.047 32.154 213.083 32.9534C213.107 33.5035 213.132 34.0662 213.41 34.6134C213.928 35.6484 215.096 36.4936 216.256 37.3328C217.697 38.3748 219.124 39.4074 219.276 40.7819C220.254 40.6888 220.594 40.7574 220.868 41.7373C221.351 41.6577 221.843 41.5173 222.338 41.3763C223.684 40.9925 225.048 40.6037 226.279 41.4188H226.619L227.255 40.4634C228.847 41.578 229.916 41.6687 231.712 41.1004L231.076 42.6951L232.03 43.0136C233.37 41.1469 235.281 43.31 235.53 44.9269H235.848L236.166 44.2899L237.758 44.9269L238.076 45.8822L242.873 46.8377L248.284 48.43V48.7485H247.33V49.0669L250.83 50.3408L251.148 48.4275L253.694 48.109L255.923 45.5589L257.219 45.8774L259.766 43.6456L258.176 43.9641L259.447 42.6902L259.129 41.0954L258.493 41.7324H258.176L257.539 41.0954L257.858 38.8417L257.221 39.5006H256.904L258.493 36.61L257.221 37.2469C258.63 35.0593 263.701 34.0133 265.814 35.6521L266.768 35.0152L266.45 36.2891L270.269 35.9706V37.8839H270.587L272.201 37.2469L271.541 35.6521L272.837 35.3337V35.0152L272.201 34.3783H274.112L275.386 33.1044L276.658 30.2358H277.93C278.5 32.1466 280.635 34.6061 282.704 34.3783V34.0598H281.433C281.797 31.8061 284.162 32.1711 283.025 34.3783L285.571 35.3337L286.207 34.3783L285.889 33.1044L284.935 33.4229L285.571 32.149L283.025 30.8751L283.661 29.6013L285.253 29.9198L284.935 28.9643L286.207 28.009C286.514 28.0157 286.83 28.0957 287.124 28.1703C287.79 28.3387 288.347 28.48 288.458 27.6905H288.776L292.618 28.2834L297.687 30.5591L298.323 27.6905L302.483 29.6038L300.233 31.8354L303.437 34.3856L305.984 33.7487C306.417 29.7189 310.506 29.7188 312.03 33.1117H313.302C314.894 30.6081 318.145 33.636 315.212 35.3435L315.848 36.9382V37.2567L314.894 37.5752L317.463 38.849L317.781 37.2543L318.417 37.5727C320.19 33.8148 322.805 37.4576 321.599 40.4634L322.553 41.7373C322.816 41.8642 323.099 41.9895 323.39 42.1184C325.032 42.8456 326.93 43.6864 327.007 45.5613C332.122 46.2423 337.349 50.1129 339.123 55.1447H339.759L340.077 54.8262L337.848 51.6171L339.759 49.7038C338.144 50.1374 337.349 49.9316 335.94 49.0669C336.417 47.2002 336.987 46.0856 338.805 45.2429V46.1982C339.896 46.8597 340.282 47.4746 340.077 48.7485H341.348L341.666 51.9355L344.531 50.3408C340.395 49.2016 344.917 46.8572 344.213 50.0223H346.441V50.9776L344.213 51.6146L344.531 52.8885L349.328 50.9753L350.6 51.9306L346.757 60.5586L349.325 59.9216L349.961 61.8349L351.553 60.8795H351.871L352.507 62.4743L353.461 60.5611L355.69 61.198C357.033 58.5131 358.872 57.6924 360.237 58.7629L360.464 58.9687C361.01 59.493 361.44 60.3357 361.736 61.5189L360.144 63.1137C361.802 63.388 362.575 63.9564 362.712 65.6639L368.759 63.7506C369.556 64.706 370.236 65.3209 370.987 64.0691L374.17 63.4321V63.1137C368.463 62.2244 375.305 57.0799 375.124 61.2004L377.374 60.5635C377.009 59.2186 376.533 58.5376 375.124 58.3318V57.6948L373.534 57.0579H373.216C368.624 62.5454 364.077 52.2099 370.987 53.3025C371.784 53.4241 372.561 53.7442 373.325 54.059C373.716 54.2199 374.103 54.3793 374.488 54.5102V54.8287L373.216 55.1472V55.4656L375.126 55.784L374.808 57.0579L377.694 57.3764L380.512 57.5576L385.013 58.6503C386.116 59.3607 387.438 59.7874 388.764 60.2151C390.881 60.8981 393.007 61.584 394.264 63.4321H394.582L395.218 62.7952C395.622 64.1727 397.293 64.5351 398.888 64.8811C399.718 65.0611 400.528 65.2368 401.128 65.5487C401.779 65.8748 402.338 66.3223 402.906 66.7768C403.567 67.3057 404.24 67.844 405.083 68.2115L404.447 69.5099H406.039L406.675 70.4653L406.039 66.6168H410.836L408.608 70.1444L409.243 70.7813V71.0998L408.608 71.7368H411.472L413.382 72.0552L414.336 72.6921V74.6054H416.564L415.929 75.8792L424.226 81.298C423.272 79.1349 423.998 77.746 426.454 78.7479L426.136 79.3848L427.09 79.7033C426.953 81.3666 426.635 82.1163 424.862 82.2535L427.09 83.8702C428.545 86.7168 429.795 88.9241 433.454 89.2891C434.115 90.5874 434.91 90.8373 436.319 90.8839L437.273 91.8393L439.205 93.4341V95.6657C439.657 95.5187 440.117 95.2328 440.582 94.9434C441.264 94.5188 441.959 94.0865 442.661 94.0734C444.058 94.059 444.484 95.7347 444.865 97.235C445.067 98.0308 445.257 98.7772 445.572 99.1958V99.5143L444.618 99.8328H445.572L445.254 100.788L446.208 103.02C447.778 103.089 448.56 103.857 449.486 104.766C449.766 105.041 450.059 105.329 450.391 105.614C453.713 108.461 456.026 111.874 458.461 115.47L458.756 115.905C459.62 117.182 461.144 121.324 459.28 121.849L459.916 122.485V122.804L460.234 128.223C462.807 129.713 462.711 131.785 462.603 134.094C462.571 134.782 462.538 135.492 462.575 136.214C462.677 137.934 463.156 139.582 463.633 141.226Z" fill="url(#paint0_linear_69_21247)"/>
<defs>
<linearGradient id="paint0_linear_69_21247" x1="232.338" y1="0" x2="232.338" y2="494" gradientUnits="userSpaceOnUse">
<stop stop-color="#FFA739"/>
<stop offset="1" stop-color="#FA5042"/>
</linearGradient>
</defs>
</svg>
