<svg width="49" height="54" viewBox="0 0 49 54" fill="none" xmlns="http://www.w3.org/2000/svg">
<path fill-rule="evenodd" clip-rule="evenodd" d="M20.8097 36.5523C20.873 35.5917 21.1581 35.0744 21.7809 34.7894C22.1714 34.61 22.4459 34.5889 24.2932 34.61C26.5945 34.6416 26.6789 34.6733 27.2067 35.4334C27.439 35.7712 27.439 35.845 27.439 38.7691V41.767H32.7593H38.0901L38.1218 38.7797L38.1534 35.7817L38.4385 35.3595C38.9029 34.6522 39.2724 34.5678 41.6581 34.61C43.5054 34.6416 43.706 34.6628 43.9699 34.8633C44.5399 35.2856 44.6983 35.6023 44.751 36.4679L44.8038 37.2807L46.1233 37.3335C47.2845 37.3757 47.4851 37.4179 47.7912 37.629C47.9288 37.7273 48.0397 37.7985 48.129 37.8906C48.5194 38.2931 48.4985 39.0947 48.4985 44.3005C48.4985 49.5064 48.5194 50.308 48.129 50.7104C48.0397 50.8025 47.9288 50.8737 47.7912 50.972C47.4851 51.1831 47.2845 51.2253 46.1233 51.2676L44.8038 51.3203L44.751 52.1332C44.6983 52.9988 44.5399 53.3155 43.9699 53.7377C43.706 53.9383 43.5054 53.9594 41.6581 53.9911C39.2724 54.0333 38.9029 53.9488 38.4385 53.2416L38.1534 52.8193L38.1218 49.8214L38.0901 46.834H32.7593H27.439V49.8319C27.439 52.756 27.439 52.8299 27.2067 53.1677C26.6895 53.9277 26.5945 53.9594 24.346 53.9911C21.9709 54.0333 21.5909 53.9488 21.1369 53.2627C20.9258 52.9354 20.8519 52.6715 20.8097 52.0593L20.7569 51.2676H19.5219C18.1707 51.2676 17.854 51.162 17.3684 50.497C17.1467 50.2014 17.1467 50.1169 17.1467 44.3005C17.1467 38.4841 17.1467 38.3996 17.3684 38.1041C17.854 37.439 18.1707 37.3335 19.5219 37.3335H20.7569L20.8097 36.5523ZM25.75 52.3232V44.3005V36.2778H24.1138H22.4776V44.3005V52.3232H24.1138H25.75ZM43.0621 52.3232V44.3005V36.2778H41.4258H39.7896V44.3005V52.3232H41.4258H43.0621ZM20.683 49.5786V44.3005V39.0224H19.6802H18.6774V44.3005V49.5786H19.6802H20.683ZM46.8623 49.5786V44.3005V39.0224H45.8066H44.751V44.3005V49.5786H45.8066H46.8623ZM38.1007 45.145V44.3533V43.5616H32.7698H27.439V44.3533V45.145H32.7698H38.1007ZM14.9827 0.101952C13.4838 0.534756 12.2804 1.67482 11.8687 3.05767L11.742 3.50103L10.4119 3.57492C9.30353 3.6277 8.97629 3.69104 8.50127 3.90216C7.75178 4.25051 7.04452 4.97889 6.73839 5.70726L6.50615 6.28785L4.10991 6.31952L1.71367 6.35119L1.19641 6.66787C0.87973 6.86844 0.563046 7.18512 0.362479 7.50181L0.0457951 8.01906L0.0141267 26.0278C0.0122965 27.1808 0.0104311 28.2623 0.00868122 29.2768C-0.0161564 43.6763 -0.0177219 44.5839 0.43512 45.0501C0.465582 45.0815 0.4981 45.1109 0.532806 45.1422C0.574794 45.1801 0.619984 45.2209 0.668607 45.2717C0.869174 45.4722 1.20697 45.7256 1.42865 45.8417C1.81923 46.0317 2.14647 46.0423 8.20569 46.0423H14.5816L14.7822 45.7889C15.0461 45.4722 15.0355 45.0289 14.7611 44.6911L14.5499 44.4061L8.32181 44.385L2.08313 44.3533L1.88256 44.1C1.682 43.8572 1.682 43.4244 1.682 26.144V8.42019L1.95646 8.20907C2.22036 7.99795 2.3787 7.98739 4.27881 7.98739H6.3267V8.5152C6.3267 8.90578 6.37948 9.09579 6.53782 9.25413C6.74895 9.46525 6.88618 9.46525 16.0384 9.46525C25.1905 9.46525 25.3278 9.46525 25.5389 9.25413C25.6972 9.09579 25.75 8.90578 25.75 8.5152V7.98739H27.7979C29.698 7.98739 29.8563 7.99795 30.1202 8.20907L30.3947 8.42019L30.4158 23.6633L30.4475 38.9063L30.6797 39.1491C30.9753 39.4447 31.5664 39.4552 31.8726 39.1808L32.0837 38.9908L32.0626 23.5049L32.0309 8.01906L31.7142 7.50181C31.5137 7.18512 31.197 6.86844 30.8803 6.66787L30.363 6.35119L27.9985 6.31952C25.8767 6.28785 25.6444 6.26674 25.6444 6.1084C25.6444 5.81282 25.0533 4.87333 24.6311 4.50386C23.8921 3.85994 23.2376 3.63826 21.8231 3.56437L20.5669 3.50103L20.3136 2.86766C19.8069 1.6326 18.9096 0.714211 17.759 0.281406C17.0095 -0.0036087 15.6583 -0.0880585 14.9827 0.101952ZM16.9356 1.83316C17.664 2.07595 18.3607 2.79377 18.6563 3.61715C19.1313 4.92611 19.6274 5.24279 21.1792 5.24279C22.7943 5.25335 23.3115 5.4328 23.8288 6.19285C24.0082 6.45675 24.061 6.68898 24.061 7.15345V7.77627H16.0278H7.99457L8.0368 7.02678C8.07902 6.30896 8.08958 6.25618 8.51182 5.87616C9.05019 5.36947 9.49354 5.24279 10.7919 5.24279C11.6153 5.24279 11.9109 5.20057 12.2381 5.03167C12.7026 4.79943 13.1037 4.31385 13.2832 3.77549C13.8321 2.10762 15.3733 1.2948 16.9356 1.83316ZM15.405 3.3427C15.1305 3.61716 15.1199 4.30331 15.3838 4.52499C15.6794 4.78889 15.9222 4.83112 16.2917 4.67278C16.7561 4.48277 16.9462 3.98663 16.7245 3.55383C16.4817 3.0788 15.785 2.96268 15.405 3.3427ZM8.73348 15.25C9.70465 14.2894 10.5703 13.4766 10.6547 13.4449C11.2247 13.2443 11.7631 13.6666 11.7631 14.3105C11.7631 14.7328 11.7103 14.7961 9.65187 16.8651C8.49069 18.0263 7.43508 19.0291 7.3084 19.0819C7.17118 19.1241 6.97061 19.1347 6.85449 19.0924C6.73837 19.0502 6.07334 18.4485 5.37663 17.7624C4.32102 16.7068 4.10989 16.4534 4.10989 16.179C4.10989 15.7356 4.47936 15.3767 4.93327 15.3767C5.2394 15.3767 5.41886 15.4928 6.12612 16.1895L6.97061 17.0023L8.73348 15.25ZM14.2544 15.6512C13.9588 16.0206 13.9799 16.3584 14.286 16.7173L14.5394 17.0129H20.9786C27.1645 17.0129 27.4284 17.0023 27.6395 16.8123C27.9034 16.5695 27.9351 15.9573 27.6923 15.6089L27.534 15.3767H20.9997H14.4655L14.2544 15.6512ZM4.42661 26.2178C4.42661 23.6632 4.43717 23.5155 4.64829 23.2516L4.85942 22.9771H7.9207C10.8342 22.9771 10.982 22.9877 11.1825 23.1882C11.3831 23.3888 11.3937 23.5366 11.3937 26.1967C11.3937 28.8569 11.3831 29.0047 11.1825 29.2052C10.982 29.4058 10.8342 29.4163 7.96292 29.4163H4.94387L4.69052 29.1524L4.42661 28.8991V26.2178ZM9.70469 27.7274V26.1967V24.6661H7.91014H6.1156V26.1967V27.7274H7.91014H9.70469ZM14.3388 25.5C14.1488 25.6478 14.0855 25.8061 14.0855 26.1439C14.0855 26.4817 14.1488 26.6401 14.3388 26.7879C14.5711 26.9779 14.8561 26.9884 20.947 26.9884C27.2173 26.9884 27.3123 26.9884 27.5868 26.7668C27.9457 26.4817 27.9774 25.8378 27.629 25.5106C27.4073 25.2994 27.2912 25.2994 20.9892 25.2994C14.8666 25.2994 14.5711 25.31 14.3388 25.5Z" fill="white"/>
</svg>
