<svg width="48" height="49" viewBox="0 0 48 49" fill="none" xmlns="http://www.w3.org/2000/svg">
<path d="M8.59983 0.443907C7.44011 0.67585 6.44174 0.938048 6.36107 1.00864C6.02828 1.37168 0.209515 10.9923 0.0885013 11.3856C-0.0728509 11.9201 -0.0123438 12.5756 0.259938 13.1C0.703656 13.9672 2.43819 15.6715 3.83994 16.6295C5.67532 17.8699 7.36952 18.4649 9.51752 18.6061L10.4957 18.6767L12.7446 23.5475L14.9833 28.4183V31.3025V34.1867L15.2354 34.4287L15.4775 34.6808H20.4693H25.4712L25.5115 34.9027C25.5317 35.0338 25.6124 35.4775 25.6729 35.891C25.8242 36.8288 26.1771 37.9179 26.5906 38.7348C26.8528 39.2491 26.873 39.3399 26.7116 39.2793C26.6108 39.239 26.3788 39.1785 26.1973 39.1482C25.8746 39.0877 25.7939 39.1583 24.1905 40.7618C22.6173 42.3249 22.5064 42.456 22.5064 42.8089C22.5064 43.0711 22.577 43.2325 22.7282 43.3636C22.8492 43.4543 23.656 43.777 24.5132 44.0594L26.0662 44.5737L26.5805 46.1267C26.8629 46.9839 27.1856 47.7907 27.2763 47.9117C27.4074 48.063 27.5688 48.1335 27.831 48.1335C28.1839 48.1335 28.315 48.0226 29.8781 46.4494C31.4816 44.846 31.5522 44.7653 31.4917 44.4426C31.4614 44.2611 31.411 44.0292 31.3706 43.9384C31.3202 43.7972 31.4917 43.8476 32.1371 44.1502C35.1019 45.5418 38.7828 45.4712 41.7577 43.9888C43.9964 42.8593 45.7612 41.1046 46.8806 38.8659C47.6773 37.2624 48 35.8204 48 33.8741C48 31.8067 47.6672 30.4251 46.7193 28.6099C45.0553 25.393 41.9291 23.2046 38.2281 22.6802C36.3423 22.418 34.0229 22.7408 32.3589 23.487C31.9858 23.6584 31.6833 23.7795 31.6732 23.7694C31.6631 23.7492 32.1774 22.5996 32.8228 21.2079L33.9926 18.6767L34.9708 18.6061C37.6029 18.4347 39.6299 17.5674 41.9392 15.6413C42.8065 14.9152 43.946 13.6445 44.2284 13.1C44.5007 12.5756 44.5612 11.9201 44.3998 11.3856C44.2486 10.9015 38.3794 1.26075 38.0668 0.98847C37.8651 0.806949 33.6397 -0.0603187 33.3472 0.0203573C33.2464 0.0405263 32.5505 0.47416 31.7942 0.98847C30.7454 1.6843 30.4025 1.96667 30.3521 2.17844C30.2613 2.51123 31.1387 5.24413 31.3908 5.45591C31.5118 5.54667 32.0766 5.59709 33.4682 5.63743L35.3843 5.68785L36.181 8.05771C36.6146 9.35861 36.9675 10.4477 36.9675 10.4881C36.9675 10.5183 36.6348 10.5284 36.2415 10.5082C35.3339 10.4477 34.5775 10.6999 33.8111 11.3251L33.2867 11.7386L32.7321 11.5469C32.3388 11.4058 31.895 11.3453 31.2194 11.3453C30.1 11.3453 29.4949 11.5369 28.4461 12.2428L27.8007 12.6663L27.0444 12.1621L26.278 11.6579V10.1049C26.278 8.59219 26.2679 8.54177 26.0259 8.30982L25.7838 8.05771H22.2442H18.7045L18.4625 8.30982C18.2204 8.54177 18.2104 8.59219 18.2104 10.1049V11.6579L17.4439 12.1621L16.6876 12.6663L16.0422 12.2428C14.9934 11.5369 14.3883 11.3453 13.269 11.3453C12.5933 11.3453 12.1496 11.4058 11.7563 11.5469L11.2016 11.7386L10.6772 11.3251C9.91081 10.6999 9.15447 10.4477 8.25695 10.5082C7.85357 10.5284 7.52078 10.5183 7.52078 10.4881C7.52078 10.4477 7.87374 9.35861 8.30738 8.05771L9.10405 5.68785L11.0201 5.63743C12.4118 5.59709 12.9765 5.54667 13.0975 5.45591C13.3496 5.24413 14.227 2.51123 14.1362 2.17844C14.0858 1.96667 13.7429 1.6843 12.6336 0.948132C11.7159 0.332977 11.1109 -0.00989621 10.9495 0.0001883C10.8083 0.0102728 9.74946 0.201878 8.59983 0.443907ZM11.605 2.2087C12.0185 2.49106 12.3613 2.77343 12.3513 2.84402C12.3513 2.91461 12.2706 3.18689 12.1697 3.46926L11.9882 3.97348L10.0722 4.02391C8.69059 4.06425 8.11577 4.11467 7.99476 4.20543C7.82332 4.3567 5.30219 11.7991 5.30219 12.1722C5.30219 12.4949 5.73583 12.8983 6.08878 12.8983C6.24005 12.8983 6.5325 12.7873 6.71402 12.6462C6.90563 12.505 7.28884 12.3235 7.56112 12.2428C8.58974 11.9302 9.27549 12.1117 9.88056 12.8378C10.5764 13.6546 10.6369 13.705 10.9293 13.705C11.0806 13.705 11.3731 13.5941 11.5647 13.4529C11.7563 13.3117 12.1496 13.1201 12.4521 13.0294C13.511 12.7268 14.4488 13.0092 15.6892 14.0076C16.0825 14.3202 16.4254 14.5118 16.5868 14.5118C16.8691 14.5118 19.5819 12.7672 19.7331 12.4848C19.7835 12.384 19.8239 11.7184 19.8239 10.9923V9.67123H22.2442H24.6644V10.9923C24.6644 11.7184 24.7048 12.384 24.7552 12.4848C24.9166 12.7773 27.6192 14.5118 27.9117 14.5118C28.0831 14.5118 28.3655 14.3504 28.6982 14.0681C30.1807 12.7974 31.7438 12.5756 32.9237 13.4529C33.1153 13.5941 33.4077 13.705 33.559 13.705C33.8514 13.705 33.9119 13.6546 34.6078 12.8378C35.2128 12.1117 35.8986 11.9302 36.9272 12.2428C37.1995 12.3235 37.5827 12.505 37.7743 12.6462C37.9558 12.7873 38.2483 12.8983 38.3995 12.8983C38.7525 12.8983 39.1861 12.4949 39.1861 12.1722C39.1861 11.7991 36.665 4.3567 36.4936 4.20543C36.3726 4.11467 35.7977 4.06425 34.4162 4.02391L32.5001 3.97348L32.3186 3.46926C32.2177 3.18689 32.1371 2.91461 32.1371 2.84402C32.127 2.68267 33.5691 1.70447 33.8212 1.70447C34.1338 1.70447 37.0079 2.30954 37.0785 2.39022C37.1188 2.43055 38.45 4.56847 40.0433 7.1501C42.5039 11.1537 42.9174 11.8797 42.8771 12.1319C42.8166 12.4243 42.1712 13.221 41.3846 13.9672C40.0736 15.2278 38.1575 16.3371 36.6146 16.7405C36.0095 16.9018 35.465 16.9623 34.4767 16.9724C33.438 16.9825 33.1052 17.0128 32.9942 17.1338C32.9136 17.2144 31.9858 19.1507 30.937 21.4298C29.1218 25.3728 29.0008 25.6148 28.3554 26.351C27.9822 26.7746 27.5184 27.3796 27.3167 27.6922C26.4897 28.9931 25.7838 30.8386 25.6225 32.1093C25.4914 33.1581 25.6225 33.0673 24.2611 33.0673H23.0509V31.8571V30.647H23.6056C24.2812 30.647 24.6644 30.3546 24.6644 29.8402C24.6644 29.3259 24.2812 29.0335 23.6056 29.0335H23.0509V28.2267V27.42H24.4123C25.7334 27.42 25.7939 27.4099 26.0259 27.1679C26.1872 27.0166 26.278 26.8048 26.278 26.6132C26.278 26.4216 26.1872 26.2098 26.0259 26.0586C25.7939 25.8165 25.7334 25.8064 24.4123 25.8064H23.0509V25.2518C23.0509 24.5761 22.7585 24.1929 22.2442 24.1929C21.7299 24.1929 21.4374 24.5761 21.4374 25.2518V25.8064H20.076C18.7549 25.8064 18.6944 25.8165 18.4625 26.0586C18.1297 26.3813 18.1297 26.8451 18.4625 27.1679C18.6944 27.4099 18.7549 27.42 20.076 27.42H21.4374V28.2267V29.0335H20.8828C20.2071 29.0335 19.8239 29.3259 19.8239 29.8402C19.8239 30.3546 20.2071 30.647 20.8828 30.647H21.4374V31.8571V33.0673H19.0171H16.5968V30.5562V28.0452L14.1161 22.6601C12.7546 19.7053 11.5748 17.2144 11.4941 17.1338C11.3731 17.0128 11.0504 16.9825 10.0117 16.9724C9.01329 16.9623 8.47881 16.9018 7.87374 16.7405C6.36107 16.3472 4.59628 15.3387 3.26512 14.1185C2.40794 13.342 1.68185 12.4546 1.61126 12.1319C1.57092 11.8797 1.98439 11.1537 4.44501 7.1501C6.03836 4.56847 7.36952 2.43055 7.40985 2.38013C7.49053 2.29946 10.173 1.72464 10.5764 1.71455C10.7579 1.70447 11.121 1.88599 11.605 2.2087ZM38.9744 24.445C40.7392 24.8686 42.2014 25.6955 43.5326 27.0166C44.9242 28.3982 45.7512 29.8503 46.215 31.716C46.4571 32.674 46.4571 35.0741 46.215 36.0321C45.1461 40.2878 41.6064 43.2728 37.3104 43.5249C35.1019 43.656 32.843 42.9904 31.0681 41.6895L30.5235 41.2862L31.0782 40.7214L31.6429 40.1466L32.3993 40.6307C33.7708 41.5282 35.0112 41.8912 36.7659 41.8811C38.2382 41.8811 39.0248 41.7198 40.2551 41.1349C42.3426 40.1365 43.9057 38.281 44.5511 36.0321C44.8536 34.9833 44.8839 32.8656 44.6015 31.8571C43.8351 29.0537 41.8182 26.9863 38.9844 26.0888C38.339 25.8871 38.0163 25.8569 36.8163 25.8569C35.1423 25.8569 34.5271 25.998 33.1859 26.6636C28.8798 28.7915 27.3873 34.2371 30.0092 38.2406L30.4933 38.997L29.9185 39.5617L29.3537 40.1164L28.9504 39.5718C26.167 35.7397 26.5502 30.526 29.858 27.1679C30.3622 26.6535 30.9874 26.0989 31.2496 25.9174C32.3993 25.1409 33.9825 24.5055 35.3238 24.2938C36.1204 24.1728 38.1878 24.2534 38.9744 24.445ZM38.934 27.7931C39.9324 28.1662 40.477 28.499 41.2333 29.215C43.8553 31.716 43.8855 35.8405 41.3039 38.4222C39.1458 40.5903 35.8683 40.9332 33.2464 39.2793L32.8026 38.997L33.3875 38.4121L33.9624 37.8373L34.4868 38.1196C37.6634 39.8441 41.6064 37.4944 41.6064 33.8741C41.6064 31.2017 39.4383 29.0335 36.7659 29.0335C35.5053 29.0335 34.4565 29.457 33.4884 30.3646C31.8648 31.8773 31.4715 34.2169 32.5203 36.1531L32.8026 36.6775L32.2278 37.2524L31.6429 37.8373L31.3606 37.3935C29.7571 34.8522 30.0395 31.6555 32.0665 29.4772C32.7522 28.741 33.4581 28.257 34.4464 27.8536C35.354 27.4906 35.7877 27.4301 37.018 27.4603C37.9457 27.4906 38.2584 27.5511 38.934 27.7931ZM38.097 30.9294C38.692 31.1916 39.3777 31.8672 39.7004 32.5126C40.0534 33.2286 40.0433 34.5094 39.6904 35.2355C39.3777 35.8809 38.7727 36.4859 38.1273 36.7986C37.4617 37.1213 36.2213 37.1515 35.5759 36.8591L35.1423 36.6675L36.3625 35.4371C37.4012 34.3783 37.5726 34.1665 37.5726 33.8841C37.5726 33.4505 37.1894 33.0673 36.7558 33.0673C36.4734 33.0673 36.2616 33.2387 35.2028 34.2875L33.9724 35.4977L33.7909 35.064C33.0951 33.3396 34.0229 31.363 35.7977 30.7882C36.3726 30.5966 37.5121 30.6672 38.097 30.9294ZM27.1957 41.145C27.5486 41.266 27.8713 41.3971 27.9117 41.4273C27.952 41.4677 27.6495 41.8307 27.236 42.2442L26.4897 42.9904L25.9048 42.8089C24.6947 42.4257 24.735 42.5366 25.5721 41.6895C25.9855 41.2761 26.3687 40.9332 26.4292 40.9332C26.4897 40.9332 26.8326 41.0341 27.1957 41.145ZM29.505 43.5048L29.747 44.2712L29.0008 45.0174C28.5974 45.4309 28.2344 45.7435 28.194 45.7233C28.1638 45.7032 28.0226 45.3401 27.8915 44.9166L27.6495 44.1502L28.3957 43.4039C28.7991 42.9904 29.1621 42.6778 29.2025 42.698C29.2327 42.7182 29.3739 43.0812 29.505 43.5048Z" fill="white"/>
<path d="M18.4625 15.5707C18.2003 15.8228 18.1398 16.206 18.3112 16.5388C18.3717 16.6396 18.7953 16.922 19.2491 17.1438C19.8844 17.4666 20.2878 17.7691 20.9937 18.4548C21.7702 19.2112 21.9618 19.3524 22.2442 19.3524C22.5265 19.3524 22.7181 19.2112 23.4946 18.4548C24.2006 17.7691 24.6039 17.4666 25.2393 17.1438C26.0964 16.7203 26.278 16.5287 26.278 16.0749C26.278 15.7421 25.8544 15.3186 25.5216 15.3186C25.0477 15.3186 23.4442 16.206 22.8291 16.8111L22.2442 17.3758L21.6693 16.8111C21.0441 16.206 19.4407 15.3186 18.9667 15.3186C18.8255 15.3186 18.5936 15.4295 18.4625 15.5707Z" fill="white"/>
<path d="M14.4287 17.991C14.2875 18.1221 14.1766 18.3338 14.1766 18.4649C14.1766 18.596 14.4993 19.5036 14.8926 20.4818C16.0019 23.245 16.2035 23.3862 19.1381 23.3862C20.9231 23.3862 20.9433 23.3862 21.1853 23.1341C21.3466 22.9828 21.4374 22.771 21.4374 22.5794C21.4374 22.3878 21.3466 22.176 21.1853 22.0248C20.9433 21.7726 20.913 21.7726 19.1986 21.7726C17.8171 21.7726 17.4036 21.7424 17.2322 21.6214C17.1011 21.5306 16.7683 20.8449 16.3548 19.786C15.9817 18.8481 15.5884 18.0111 15.4674 17.9103C15.1749 17.6582 14.7211 17.6884 14.4287 17.991Z" fill="white"/>
<path d="M29.021 17.9103C28.8999 18.0111 28.5066 18.8481 28.1335 19.786C27.7201 20.8449 27.3873 21.5306 27.2562 21.6214C27.0847 21.7424 26.6713 21.7726 25.2897 21.7726C23.5753 21.7726 23.5451 21.7726 23.303 22.0248C22.9703 22.3475 22.9703 22.8114 23.303 23.1341C23.5451 23.3862 23.5652 23.3862 25.3502 23.3862C28.2848 23.3862 28.4865 23.245 29.5958 20.4818C29.9891 19.5036 30.3118 18.596 30.3118 18.4649C30.3118 17.8901 29.4647 17.5372 29.021 17.9103Z" fill="white"/>
</svg>
