<svg width="51" height="78" viewBox="0 0 51 78" fill="none" xmlns="http://www.w3.org/2000/svg">
<path d="M14.491 3.73092C14.491 1.77571 16.0939 0.190674 18.0711 0.190674H32.3916C34.3689 0.190674 35.9717 1.77571 35.9717 3.73092V7.27116C35.9717 9.22636 34.3689 10.8114 32.3916 10.8114H18.0711C16.0939 10.8114 14.491 9.22636 14.491 7.27116V3.73092Z" fill="white"/>
<path d="M41.3418 2.8457H9.12068C5.6605 2.8457 2.85547 5.61949 2.85547 9.04113V69.2252C2.85547 72.6469 5.6605 75.4207 9.12068 75.4207H41.3418C44.802 75.4207 47.607 72.6469 47.607 69.2252V9.04113C47.607 5.61949 44.802 2.8457 41.3418 2.8457Z" stroke="white" stroke-width="5"/>
<path d="M14.491 65.6855H35.9717" stroke="white" stroke-width="5" stroke-linecap="round"/>
</svg>
