<svg width="71" height="81" viewBox="0 0 71 81" fill="none" xmlns="http://www.w3.org/2000/svg">
<path fill-rule="evenodd" clip-rule="evenodd" d="M28.4033 3.61613C22.6576 7.00615 16.9114 10.3955 11.1648 13.784C5.17737 17.3146 0.20228 20.2765 0.109028 20.3658C-0.0253039 20.4946 -0.0329723 23.1287 0.072056 33.0202C0.145042 39.891 0.205977 48.5151 0.207483 52.1852C0.208852 55.8553 0.249248 59.3232 0.297175 59.8914L0.384264 60.9247L3.00162 62.4132C4.64975 63.3505 6.29817 64.287 7.94685 65.2231C9.22716 65.9502 11.692 67.3515 13.4242 68.3378C31.0548 78.3744 35.4672 80.8453 35.6084 80.7609C35.6978 80.7072 43.5135 76.0933 52.977 70.5074C62.4404 64.9219 70.1833 60.3037 70.1833 60.2451C70.1833 60.134 67.8156 58.8997 67.6027 58.8997C67.5361 58.8997 60.266 63.1588 51.4473 68.364L35.4127 77.8283L21.6113 69.9971C6.05631 61.1704 3.37859 59.6496 3.08569 59.4737C2.85181 59.3337 2.8655 60.134 2.69173 36.4497C2.59616 23.4234 2.60683 22.0111 2.80155 21.8137C2.92014 21.6936 9.98032 17.4993 18.4907 12.4932C27.0012 7.48702 34.1532 3.27752 34.3842 3.1387L34.8041 2.88619L36.5067 3.85614C37.443 4.38958 39.3801 5.48918 40.8109 6.29956C42.2417 7.10995 46.4936 9.52359 50.2594 11.6632C54.0251 13.8027 57.2909 15.6576 57.5168 15.7852C57.7428 15.9129 60.0065 17.2007 62.5474 18.6471C65.0884 20.0935 67.2251 21.277 67.2955 21.277C67.6928 21.277 69.7772 19.8505 69.609 19.6938C69.5104 19.6022 67.7047 18.5525 65.5961 17.3612C63.4871 16.17 58.5577 13.3741 54.6414 11.1481L44.9189 5.62248C43.4881 4.8092 40.7459 3.25075 38.8254 2.159C36.9049 1.06739 35.2035 0.105266 35.0446 0.0209577C34.7909 -0.113743 33.982 0.324137 28.4033 3.61613ZM21.4262 12.2522C14.0879 16.5774 7.13785 20.671 5.98171 21.3489L3.87962 22.5814L3.97932 37.2735C4.03425 45.3542 4.11751 53.4696 4.16431 55.308L4.24961 58.6506L15.1359 64.8301L30.7077 73.6699L35.3931 76.3298L36.4589 75.6976C37.045 75.3497 39.3116 74.0151 41.4957 72.7318C43.6798 71.4486 46.6376 69.7047 48.0684 68.8562C49.4995 68.008 54.121 65.2875 58.3383 62.8105C67.0161 57.7144 66.3517 58.1422 65.9995 57.8749C65.5853 57.5609 65.5526 57.5744 62.897 59.1528C61.5197 59.9716 60.0227 60.8576 59.5708 61.1218C59.1189 61.3857 55.9455 63.2587 52.5189 65.2841C48.6277 67.5833 44.7356 69.8814 40.8432 72.1783L35.3979 75.3906L34.3311 74.8004C33.7445 74.4753 26.9127 70.5988 19.1495 66.1855L5.03479 58.1615L4.94526 50.6011C4.89595 46.4427 4.84256 38.5315 4.82654 33.0205L4.79737 23.0004L6.30363 22.1177L8.56305 20.7937C9.33287 20.3425 17.3366 15.6237 20.5447 13.7295C21.5238 13.1514 24.3583 11.4831 26.8437 10.0222C29.329 8.56131 32.1302 6.9081 33.0683 6.34843C34.4749 5.50947 34.8246 5.35406 35.0623 5.46268C35.2207 5.53504 37.1644 6.62842 39.3813 7.89237C46.1703 11.7626 47.1426 12.3152 54.7095 16.6057C58.739 18.8903 62.7184 21.154 63.5525 21.6362C65.2404 22.6115 65.2023 22.5998 65.6269 22.2694C65.9525 22.0161 66.1773 22.15 51.0296 13.5794C50.1539 13.0842 46.1568 10.8133 42.1474 8.53331C38.1374 6.25343 34.8369 4.38792 34.8127 4.38792C34.7884 4.38792 28.7645 7.92681 21.4262 12.2522ZM38.1407 23.8079C34.8602 25.021 33.903 26.5829 34.7947 29.2677C35.564 31.5841 36.9969 32.4069 38.73 31.5271L39.3655 31.2044L39.5268 31.6988C39.7277 32.3165 40.1781 32.9936 40.6181 33.3408C40.951 33.6032 40.9541 33.6252 40.8521 35.0283C40.5984 38.5273 40.5107 39.5427 40.4572 39.5959C40.426 39.6271 39.8536 39.3845 39.1857 39.0563C36.4143 37.695 33.0505 37.9478 30.5889 39.7023C30.3996 39.8373 30.2198 39.732 29.4735 39.0489C26.7305 36.5378 22.7789 35.5201 21.7451 37.0583L21.4348 37.5201V43.8229C21.4348 51.4585 21.3294 51.0693 23.5987 51.8126C26.2271 52.6731 28.471 52.613 30.5328 51.6263L31.444 51.1901L32.4302 51.6012C36.3185 53.2216 41.0099 53.028 44.8096 51.0909C47.2408 49.8513 49.8144 47.3715 50.4018 45.7021C50.7598 44.6854 50.6412 43.7628 49.4526 38.2985C48.8205 35.3936 48.1122 32.0783 47.879 30.9311C47.0845 27.0285 46.5244 26.2227 43.6317 24.8242C42.6828 24.3653 41.6674 23.9048 41.3756 23.8006C40.7154 23.565 38.7858 23.5692 38.1407 23.8079ZM38.4574 25.2506C37.0647 25.7534 36.3878 26.2143 36.0672 26.8782L35.7694 27.4952L36.0709 28.5397C36.5419 30.1709 37.1237 30.7178 37.9597 30.3149C38.6726 29.9713 38.7893 29.5346 38.4647 28.4289C38.1392 27.3206 38.2423 26.8671 38.8355 26.7972C39.3701 26.7342 39.5568 27.0699 40.3109 29.4469C41.2809 32.5045 41.4457 32.6737 43.4554 32.6737C44.609 32.6737 44.9874 32.8645 44.9874 33.4466C44.9874 33.9316 44.7091 34.0468 43.5381 34.0468H42.4172L42.3325 34.7676C42.286 35.164 42.1535 36.7365 42.0381 38.2619L41.8279 41.035L42.3079 41.7046C42.9273 42.569 43.0689 42.962 42.8984 43.3377C42.5839 44.0297 41.9122 43.838 41.3637 42.8999C38.8124 38.5343 32.1207 38.5476 29.5634 42.9231C29.132 43.6613 28.8351 43.8434 28.3589 43.6617C27.725 43.4202 28.0225 42.3109 29.0173 41.207L29.3085 40.8838L28.3957 40.031C27.024 38.7489 24.8736 37.7541 23.4744 37.7541H22.9411V50.0526L23.5915 50.3018C26.0121 51.2286 28.2744 51.1596 30.3481 50.0943L31.3875 49.5604L32.4113 50.0349C37.5911 52.4344 43.5508 51.3282 47.6168 47.2118C49.1123 45.6975 49.4626 44.5824 48.9906 42.8347C48.8986 42.4945 48.4868 40.672 48.0749 38.784C47.4101 35.7362 47.1507 34.4977 46.2611 30.1337C45.8111 27.9248 45.2414 27.205 43.1143 26.1591C40.5919 24.9187 39.8032 24.7648 38.4574 25.2506Z" fill="white"/>
</svg>
