<svg width="491" height="210" viewBox="0 0 491 210" fill="none" xmlns="http://www.w3.org/2000/svg">
<path d="M175.16 117.04H197.496V108.144H175.16V117.04ZM201.976 126H166.2V81.2H204.216V90.16H175.16V99.184H201.976L206.392 103.664V121.584L201.976 126ZM220.458 103.664H242.794V90.16H229.354L220.458 99.184V103.664ZM220.458 126H211.498V94.704L224.874 81.2H251.69V126H242.794V112.624H220.458V126ZM292.571 126H261.211L256.795 121.584V112.624H265.755V117.04H288.091V108.144H274.651V99.184H288.091V90.16H265.755V94.64H256.795V85.744L261.211 81.2H292.571L296.987 85.744V99.184L292.571 103.664L296.987 108.144V121.584L292.571 126ZM311.708 103.664H334.044V90.16H320.604L311.708 99.184V103.664ZM311.708 126H302.748V94.704L316.124 81.2H342.94V126H334.044V112.624H311.708V126ZM358.285 103.664H380.621V90.16H358.285V103.664ZM358.285 126H349.325V81.2H385.101L389.517 85.744V108.144L385.101 112.624H358.285V126ZM404.223 126H395.263V81.2H404.223V111.024L426.559 81.2H435.455V126H426.559V96.112L404.223 126ZM450.785 126H441.825V81.2H450.785V99.184H473.121V81.2H482.017V126H473.121V108.144H450.785V126Z" fill="white"/>
<path fill-rule="evenodd" clip-rule="evenodd" d="M73.7886 9.37515C58.8618 18.1641 43.9339 26.9512 29.0048 35.7363C13.4502 44.8898 0.525499 52.5688 0.283242 52.8002C-0.0657366 53.1341 -0.0856581 59.9634 0.187193 85.608C0.376801 103.421 0.535104 125.78 0.539017 135.295C0.542574 144.81 0.647518 153.801 0.772026 155.274L0.998274 157.953L7.79785 161.812C12.0795 164.242 16.3619 166.67 20.645 169.097C23.9711 170.982 30.3744 174.615 34.8745 177.172C80.6768 203.193 92.1397 209.599 92.5065 209.38C92.7388 209.241 113.043 197.279 137.628 182.797C162.213 168.316 182.328 156.343 182.328 156.191C182.328 155.903 176.177 152.703 175.624 152.703C175.451 152.703 156.564 163.745 133.654 177.24L91.9981 201.777L56.1437 181.474C15.7336 158.59 8.77719 154.647 8.01627 154.191C7.40867 153.828 7.44424 155.903 6.99281 94.4991C6.74451 60.7273 6.77225 57.0657 7.27811 56.5541C7.58618 56.2426 25.9277 45.3686 48.0368 32.3897C70.1459 19.4108 88.726 8.49728 89.3262 8.13738L90.4169 7.48272L94.8401 9.99741C97.2726 11.3804 102.305 14.2312 106.022 16.3322C109.739 18.4332 120.785 24.6908 130.568 30.2378C140.351 35.7848 148.835 40.5938 149.422 40.9245C150.009 41.2556 155.89 44.5944 162.491 48.3443C169.092 52.0943 174.643 55.1626 174.826 55.1626C175.858 55.1626 181.273 51.4642 180.836 51.058C180.58 50.8206 175.889 48.0991 170.411 45.0105C164.932 41.9223 152.126 34.6737 141.952 28.9025L116.694 14.5768C112.977 12.4683 105.853 8.42786 100.864 5.59741C95.8746 2.76731 91.4545 0.272911 91.0419 0.0543347C90.3827 -0.294889 88.2814 0.840355 73.7886 9.37515ZM55.6627 31.765C36.5987 42.9785 18.5433 53.5916 15.5398 55.3491L10.0788 58.5444L10.3378 96.6351C10.4805 117.585 10.6968 138.625 10.8184 143.391L11.04 152.057L39.3212 168.078L79.775 190.996L91.9472 197.892L94.7159 196.253C96.2385 195.351 102.127 191.891 107.801 188.564C113.475 185.237 121.159 180.716 124.876 178.516C128.594 176.317 140.6 169.264 151.556 162.842C174.1 149.63 172.374 150.739 171.459 150.046C170.383 149.232 170.298 149.267 163.399 153.359C159.821 155.482 155.932 157.779 154.758 158.464C153.584 159.148 145.34 164.004 136.438 169.255C126.329 175.216 116.218 181.174 106.106 187.129L91.9597 195.457L89.1881 193.927C87.6642 193.084 69.9161 183.034 49.7482 171.592L13.0798 150.789L12.8472 131.188C12.7191 120.407 12.5804 99.8966 12.5388 85.6087L12.463 59.6306L16.3761 57.3423L22.2458 53.9095C24.2457 52.7397 45.0386 40.5059 53.3728 35.595C55.9163 34.0963 63.2801 29.7711 69.7368 25.9834C76.1934 22.196 83.4704 17.9099 85.9075 16.4589C89.5617 14.2838 90.4702 13.8809 91.0878 14.1625C91.4994 14.3501 96.5487 17.1848 102.308 20.4617C119.945 30.4955 122.471 31.9283 142.129 43.0519C152.597 48.9748 162.935 54.8436 165.102 56.0938C169.487 58.6224 169.388 58.5921 170.491 57.7356C171.337 57.0788 171.921 57.4259 132.569 35.2059C130.294 33.9219 119.91 28.0346 109.494 22.1234C99.0766 16.2126 90.5022 11.3761 90.4393 11.3761C90.3763 11.3761 74.7267 20.551 55.6627 31.765ZM99.0851 61.7241C90.5627 64.8693 88.0761 68.9186 90.3927 75.8792C92.3912 81.8847 96.1136 84.0178 100.616 81.737L102.267 80.9004L102.686 82.182C103.208 83.7836 104.378 85.5389 105.521 86.4392C106.386 87.1195 106.394 87.1765 106.129 90.814C105.47 99.8856 105.242 102.518 105.103 102.656C105.022 102.737 103.535 102.108 101.8 101.257C94.6 97.7279 85.8613 98.3833 79.4665 102.932C78.9746 103.282 78.5075 103.009 76.5687 101.238C69.4426 94.7277 59.177 92.0891 56.4912 96.0772L55.6851 97.2744V113.615C55.6851 133.411 55.4112 132.402 61.3068 134.329C68.1349 136.56 73.9643 136.404 79.3207 133.846L81.6878 132.715L84.2498 133.781C94.3513 137.982 106.539 137.48 116.41 132.458C122.726 129.244 129.412 122.815 130.938 118.487C131.868 115.851 131.56 113.459 128.472 99.2925C126.83 91.7612 124.99 83.1659 124.384 80.1917C122.32 70.0738 120.865 67.9849 113.35 64.3591C110.885 63.1694 108.247 61.9754 107.489 61.7052C105.774 61.0944 100.761 61.1054 99.0851 61.7241ZM99.9079 65.4645C96.2897 66.7681 94.5313 67.9631 93.6985 69.6843L92.9248 71.2838L93.7081 73.9918C94.9315 78.2209 96.4431 79.6388 98.6148 78.5943C100.467 77.7033 100.77 76.5713 99.9268 73.7045C99.0812 70.8313 99.3491 69.6555 100.89 69.4743C102.279 69.3109 102.764 70.1813 104.723 76.3438C107.243 84.2709 107.671 84.7095 112.892 84.7095C115.889 84.7095 116.872 85.2043 116.872 86.7133C116.872 87.9707 116.149 88.2694 113.107 88.2694H110.195L109.975 90.1383C109.854 91.166 109.51 95.2428 109.21 99.1974L108.664 106.387L109.911 108.123C111.52 110.364 111.888 111.383 111.445 112.357C110.628 114.151 108.883 113.654 107.458 111.222C100.83 99.9037 83.4458 99.9383 76.8024 111.282C75.6815 113.196 74.9103 113.668 73.673 113.197C72.0263 112.571 72.7993 109.695 75.3837 106.833L76.14 105.995L73.7687 103.784C70.2053 100.46 64.6188 97.881 60.9838 97.881H59.5982V129.766L61.288 130.412C67.5764 132.815 73.4535 132.636 78.8408 129.874L81.5412 128.49L84.2007 129.72C97.6572 135.941 113.14 133.073 123.703 122.401C127.588 118.475 128.498 115.584 127.272 111.053C127.033 110.171 125.963 105.446 124.893 100.551C123.166 92.6494 122.492 89.4384 120.181 78.1244C119.012 72.3977 117.532 70.5316 112.006 67.82C105.453 64.604 103.404 64.205 99.9079 65.4645Z" fill="white"/>
</svg>
