<svg width="324" height="324" viewBox="0 0 324 324" fill="none" xmlns="http://www.w3.org/2000/svg">
<path d="M12.9512 0.518203C7.9758 1.73356 3.11436 5.60752 1.02546 10.0512C0.11394 11.9882 0 12.7098 0 16.052V19.85L20.813 75.4907C32.245 106.065 41.664 131.131 41.702 131.207C41.778 131.245 83.1382 138.196 133.614 146.589C184.089 155.021 225.411 161.971 225.411 162.085C225.411 162.199 184.089 169.149 133.614 177.581C83.1382 185.974 41.778 192.925 41.702 192.963C41.664 193.039 32.4729 217.574 21.2688 247.54C8.62146 281.456 0.7596 303.029 0.49374 304.586C-0.41778 309.713 1.44324 315.258 5.3172 318.904C9.87479 323.196 15.9516 324.449 22.1043 322.323C23.2058 321.943 39.1953 314.043 57.6156 304.776C96.773 285.026 285.078 190.38 304.751 180.505C315.424 175.188 318.5 173.441 319.829 172.15C325.64 166.339 325.337 156.54 319.184 150.387C316.829 147.994 324.159 151.754 152.68 65.5779C65.4395 21.711 23.8894 1.04992 22.2183 0.594163C19.2179 -0.165436 15.9516 -0.203416 12.9512 0.518203Z" fill="white"/>
</svg>
