<svg width="50" height="50" viewBox="0 0 50 50" fill="none" xmlns="http://www.w3.org/2000/svg">
<path d="M27.3793 49.8974C35.0642 49.1641 42.055 44.8327 46.2202 38.2037C50.9817 30.636 51.2653 20.8294 46.9535 12.9978C45.0176 9.47792 42.1332 6.32962 38.809 4.11995C35.6215 2.00805 32.1017 0.697886 28.0637 0.121024C26.9197 -0.035413 23.0577 -0.04519 21.904 0.121025C15.7345 0.981429 10.6405 3.64086 6.48513 8.14821C3.07284 11.844 0.88272 16.5763 0.129867 21.8951C-0.0656797 23.2542 -0.0363474 26.8131 0.188531 28.3482C0.393855 29.8636 0.970717 32.1906 1.46936 33.5399C1.90934 34.7425 3.10217 37.1966 3.72792 38.1744C5.64428 41.1956 8.32326 43.9332 11.2467 45.8789C12.5471 46.7491 15.0696 48.0103 16.5264 48.5285C20.0169 49.7605 23.7812 50.2396 27.3793 49.8974ZM22.1777 47.3162C18.7459 46.8664 15.3532 45.6149 12.6155 43.7963C7.61929 40.472 4.08968 35.2705 2.94574 29.5508C2.55464 27.6149 2.46665 26.4905 2.52531 24.3395C2.61331 20.8294 3.25861 18.1895 4.79365 15.051C7.94195 8.61752 14.0625 4.03195 21.1707 2.78046C22.7155 2.50669 25.8344 2.40892 27.3304 2.57513C31.7986 3.08355 36.0322 4.8728 39.3663 7.65934C43.7856 11.3552 46.5624 16.4198 47.325 22.1689C47.5108 23.6159 47.5108 26.246 47.3348 27.7126C46.2593 36.3362 40.3244 43.6008 32.1213 46.3189C30.6351 46.8175 29.3152 47.1206 27.8681 47.3162C26.4798 47.4921 23.5759 47.4921 22.1777 47.3162Z" fill="#9E9E9E"/>
<path d="M29.4034 34.7816C29.9509 34.4394 30.1464 33.491 29.7553 33.0217C29.6869 32.9337 27.6239 31.1053 25.1796 28.9641C22.7352 26.8229 20.7309 25.0238 20.7309 24.9749C20.7309 24.9261 22.7352 23.127 25.1796 20.9858C27.6239 18.8446 29.6869 17.0162 29.7651 16.9282C29.8433 16.8304 29.9216 16.5371 29.9509 16.2731C29.99 15.8136 29.9802 15.7647 29.5989 15.3932C29.2665 15.0607 29.1491 15.0021 28.7874 15.0021C28.5332 15.0021 28.2399 15.0803 28.0639 15.1878C27.663 15.4421 17.9541 23.9581 17.7097 24.271C17.4359 24.623 17.4359 25.3269 17.7097 25.6789C17.9541 25.9918 27.663 34.5078 28.0639 34.762C28.4256 34.9869 29.0514 34.9967 29.4034 34.7816Z" fill="#9E9E9E"/>
</svg>
