<svg width="50" height="51" viewBox="0 0 50 51" fill="none" xmlns="http://www.w3.org/2000/svg">
<path d="M22.6251 0.107586C14.9387 0.841027 7.94652 5.17322 3.78057 11.8035C-0.981908 19.3727 -1.26551 29.1812 3.04713 37.0144C4.98342 40.5349 7.86829 43.6838 11.1932 45.8939C14.3812 48.0062 17.9018 49.3166 21.9406 49.8936C23.0848 50.0501 26.9475 50.0598 28.1015 49.8936C34.2722 49.033 39.3672 46.3731 43.5233 41.8649C46.9363 38.1683 49.1268 33.4352 49.8798 28.1153C50.0754 26.756 50.0461 23.1963 49.8211 21.661C49.6158 20.1452 49.0388 17.8178 48.5401 16.4682C48.1 15.2654 46.9069 12.8108 46.2811 11.8329C44.3643 8.81109 41.6848 6.07291 38.7608 4.12685C37.4602 3.2565 34.9372 1.99498 33.4801 1.47668C29.9889 0.244495 26.2239 -0.234687 22.6251 0.107586ZM27.8277 2.6893C31.2602 3.13914 34.6536 4.39088 37.3918 6.20982C42.3889 9.53476 45.9192 14.7373 47.0634 20.4581C47.4546 22.3944 47.5426 23.519 47.4839 25.6705C47.3959 29.1812 46.7505 31.8216 45.2151 34.9607C42.0662 41.3955 35.9444 45.9819 28.8349 47.2337C27.2898 47.5075 24.1703 47.6053 22.674 47.439C18.2049 46.9305 13.9705 45.1409 10.6358 42.3538C6.2156 38.6573 3.4383 33.5916 2.67552 27.8415C2.48972 26.3941 2.48972 23.7635 2.66574 22.2966C3.74146 13.6714 9.67744 6.4054 17.8822 3.68678C19.3687 3.18804 20.6888 2.88488 22.1362 2.6893C23.5248 2.51327 26.4293 2.51327 27.8277 2.6893Z" fill="white"/>
<path d="M20.6008 15.2263C20.0532 15.5685 19.8576 16.5171 20.2488 16.9865C20.3172 17.0745 22.3807 18.9033 24.8255 21.0449C27.2703 23.1866 29.275 24.9859 29.275 25.0348C29.275 25.0837 27.2703 26.8831 24.8255 29.0248C22.3807 31.1664 20.3172 32.9951 20.239 33.0831C20.1608 33.1809 20.0825 33.4743 20.0532 33.7383C20.0141 34.198 20.0239 34.2469 20.4053 34.6185C20.7377 34.951 20.8551 35.0096 21.2169 35.0096C21.4712 35.0096 21.7646 34.9314 21.9406 34.8238C22.3415 34.5696 32.0523 26.0519 32.2968 25.7389C32.5706 25.3869 32.5706 24.6828 32.2968 24.3307C32.0523 24.0178 22.3415 15.5001 21.9406 15.2458C21.5788 15.0209 20.9529 15.0111 20.6008 15.2263Z" fill="white"/>
</svg>
