<svg width="64" height="69" viewBox="0 0 64 69" fill="none" xmlns="http://www.w3.org/2000/svg">
<path d="M14.9934 0.111696C14.5533 0.285083 14.2732 0.778571 14.2732 1.37876C14.2732 2.0323 15.1001 6.07356 15.3269 6.47368C15.727 7.23392 16.6606 7.40731 17.3141 6.84713C17.5409 6.66041 17.7543 6.34031 17.7943 6.14025C17.8877 5.6601 16.914 1.03198 16.6206 0.578508C16.2738 0.0450079 15.6203 -0.141717 14.9934 0.111696Z" fill="white"/>
<path d="M26.437 2.28571C26.1436 2.4591 24.0096 5.52672 23.4628 6.56705C22.996 7.43399 23.3828 8.35427 24.3164 8.58101C25.09 8.78107 25.4234 8.47431 26.9705 6.12691C28.1709 4.28633 28.411 3.8462 28.411 3.40606C28.411 2.40575 27.3307 1.79222 26.437 2.28571Z" fill="white"/>
<path d="M0.45554 4.16638C-0.384723 5.00665 -0.0512852 5.9136 1.36249 6.62048C2.3628 7.12731 2.74959 7.10063 3.26975 6.48711C3.78992 5.87358 3.72323 5.26006 3.09637 4.64653C2.01603 3.61955 1.16243 3.4595 0.45554 4.16638Z" fill="white"/>
<path d="M6.03061 7.64747C5.80388 7.83419 5.57714 8.16763 5.53713 8.39437C5.36374 9.18128 5.65716 9.54139 7.52441 10.7551C8.96486 11.6887 9.36499 11.8888 9.79179 11.8888C10.7921 11.8888 11.419 10.6751 10.8588 9.87483C10.6587 9.58141 8.338 7.96757 7.51108 7.54077C6.91089 7.22067 6.48409 7.26068 6.03061 7.64747Z" fill="white"/>
<path d="M17.6075 9.86148C15.3802 10.2216 13.1528 12.2756 12.4593 14.6363C12.1525 15.65 12.1658 17.4372 12.4593 18.4508C12.5926 18.891 14.7266 23.9192 17.2208 29.6143C19.7149 35.3094 21.7822 40.0576 21.8089 40.151C21.8622 40.2843 21.4888 40.3243 20.0483 40.3377C17.941 40.351 17.034 40.5377 15.5536 41.2846C13.2062 42.4717 11.8457 45.0592 12.2325 47.5933C12.4993 49.3272 13.753 51.4211 15.3135 52.7682C16.5939 53.8752 34.2794 67.7329 34.7596 68.0263C35.0663 68.2131 35.3464 68.2664 35.5998 68.2264C35.9466 68.1597 61.808 56.8362 62.9817 56.2493C63.2618 56.1026 63.5419 55.8759 63.6219 55.7292C63.862 55.2757 64.0621 51.7946 63.982 49.2605C63.8353 44.4456 62.9017 39.8175 61.2212 35.6562C59.9675 32.5219 58.3003 28.9074 57.7934 28.1605C56.0062 25.5464 52.6452 24.4927 49.5375 25.5731C48.8973 25.7865 48.3505 25.9599 48.3238 25.9465C48.3105 25.9198 47.897 25.0129 47.4169 23.9192C46.3499 21.4918 46.0831 21.025 45.2562 20.2114C44.4559 19.4111 43.2956 18.8376 42.0819 18.6509C40.6948 18.4375 40.0546 18.5709 37.7072 19.5578L36.28 20.158L35.5465 19.4645C34.6129 18.5842 33.8126 18.2241 32.5856 18.1441C31.5186 18.0774 30.1981 18.4108 28.4643 19.1844C27.9708 19.4111 27.5173 19.5445 27.464 19.4912C27.4239 19.4378 26.7704 17.9974 26.0235 16.3168C24.6097 13.1025 24.0629 12.2222 22.9159 11.2753C22.1156 10.6084 20.7819 10.0215 19.7415 9.86148C18.7679 9.70143 18.6345 9.70143 17.6075 9.86148ZM20.0483 12.729C20.9419 13.0358 21.8889 13.9294 22.4357 15.0098C22.6891 15.5032 24.6364 19.8779 26.7571 24.7061C30.1048 32.3485 30.665 33.5356 31.0117 33.749C31.812 34.2558 32.879 33.7356 33.0257 32.7753C33.079 32.4019 32.7056 31.4682 30.825 27.2136L28.571 22.1186L29.1978 21.8386C32.2521 20.4515 33.3725 20.5448 34.2394 22.212C34.4661 22.6388 35.6532 25.293 36.8936 28.1205C38.134 30.9347 39.241 33.3488 39.3743 33.4822C40.1479 34.2558 41.615 33.6689 41.615 32.5886C41.615 32.2685 40.9348 30.5746 39.5344 27.3736C38.3874 24.7728 37.4671 22.6255 37.4938 22.5988C37.5204 22.5721 38.214 22.2787 39.0276 21.9453C40.1746 21.4651 40.6814 21.3184 41.2416 21.3184C42.2152 21.3184 43.2289 21.8252 43.7357 22.5588C43.9358 22.8655 45.3495 25.9732 46.87 29.4543C48.8973 34.0824 49.7509 35.883 50.031 36.1497C50.5645 36.6565 51.2047 36.6565 51.7649 36.1497C52.4451 35.5362 52.3651 35.1627 50.8313 31.655C49.2975 28.1872 49.3108 28.4273 50.6712 28.0272C51.7516 27.7204 53.112 27.8404 54.0056 28.3206C55.326 29.0408 55.6328 29.521 57.5267 33.8823C59.4873 38.3637 60.4209 41.458 60.9544 45.1925C61.3279 47.86 61.3812 53.6085 61.0345 54.0486C60.9544 54.1553 55.206 56.7295 48.2571 59.7838L35.6265 65.3322L26.2502 57.9565C16.2471 50.0874 15.8603 49.7273 15.2068 48.1134C14.3665 45.9928 15.3935 44.0455 17.7142 43.3253C19.3014 42.8318 21.6888 43.0185 23.1159 43.7387C23.4227 43.8988 24.4897 44.8191 25.4767 45.7794C28.6377 48.847 28.731 48.927 29.3179 48.927C30.1848 48.927 30.8383 48.1001 30.6249 47.2732C30.5316 46.8997 30.3982 46.753 27.6774 44.1255L25.6901 42.2049L20.4751 30.2545C17.6075 23.6925 15.1801 18.1174 15.1001 17.864C15.0067 17.6106 14.94 17.0371 14.94 16.5836C14.94 13.756 17.4742 11.8488 20.0483 12.729Z" fill="white"/>
<path d="M55.286 52.4748C54.3791 52.8616 53.7522 53.4485 53.7522 53.9286C53.7522 54.7555 54.3657 55.3957 55.1393 55.3691C55.7128 55.3424 57.2733 54.6222 57.54 54.2487C57.9002 53.7286 57.8201 53.0083 57.34 52.5415C56.8332 52.0347 56.3797 52.0214 55.286 52.4748Z" fill="white"/>
<path d="M50.1511 54.7822C49.8176 54.9156 46.5233 56.3561 42.8154 57.9833C35.7866 61.0642 35.3464 61.3043 35.3464 62.0779C35.3464 62.518 35.6799 63.1582 36 63.3316C36.1467 63.3983 36.4534 63.465 36.6802 63.465C37.227 63.465 51.4048 57.263 51.9383 56.7829C52.2451 56.5028 52.3251 56.3427 52.3251 55.8626C52.3251 55.3824 52.2451 55.2224 51.8983 54.9023C51.4181 54.4621 51.0047 54.4355 50.1511 54.7822Z" fill="white"/>
<path d="M37.5205 10.9285C37.0003 11.0752 36.4135 11.7554 36.4135 12.1956C36.4135 12.6757 36.7336 13.2226 37.1337 13.436C37.5338 13.6494 38.7609 13.556 39.3344 13.2626C40.0946 12.8624 40.2413 11.7954 39.6278 11.1686C39.2944 10.8485 39.1343 10.7818 38.5875 10.7951C38.2407 10.7951 37.7605 10.8618 37.5205 10.9285Z" fill="white"/>
<path d="M30.2115 12.4356C28.2909 12.8491 28.0108 13.0625 28.0108 14.0495C28.0108 14.7163 28.5977 15.3165 29.2512 15.3165C29.7447 15.3165 32.0654 14.8764 32.7723 14.6363C33.6526 14.3562 33.906 13.2892 33.2658 12.529C32.959 12.1555 32.839 12.1155 32.2388 12.1289C31.852 12.1289 30.9451 12.2756 30.2115 12.4356Z" fill="white"/>
<path d="M5.67046 17.8372C3.28305 18.3574 2.89626 18.4908 2.66953 18.9176C2.20271 19.7979 2.81624 20.9182 3.77654 20.9182C4.35005 20.9182 8.57804 20.0513 8.93815 19.8512C9.53834 19.5311 9.80509 18.5975 9.47165 17.9706C9.29827 17.6505 8.64473 17.3171 8.2446 17.3304C8.07122 17.3304 6.92419 17.5572 5.67046 17.8372Z" fill="white"/>
<path d="M11.7391 25.3597C11.539 25.453 10.7921 26.44 9.93851 27.7204C8.71146 29.561 8.48473 30.0011 8.48473 30.4413C8.47139 31.4149 9.71178 32.0684 10.512 31.5083C10.8055 31.3082 12.9395 28.2139 13.3796 27.3603C13.8064 26.5334 13.633 25.7465 12.9395 25.3863C12.4726 25.1463 12.1792 25.1329 11.7391 25.3597Z" fill="white"/>
</svg>
